<?xml version="1.0" standalone="no"?>
<!DOCTYPE svg PUBLIC "-//W3C//DTD SVG 20010904//EN"
 "http://www.w3.org/TR/2001/REC-SVG-20010904/DTD/svg10.dtd">
<svg version="1.0" xmlns="http://www.w3.org/2000/svg"
 width="1024.000000pt" height="1024.000000pt" viewBox="0 0 1024.000000 1024.000000"
 preserveAspectRatio="xMidYMid meet">

<g transform="translate(0.000000,1024.000000) scale(0.100000,-0.100000)"
fill="#000000" stroke="none">
<path d="M9487 9540 c-5 -124 -7 -686 -5 -1250 4 -1287 6 -1472 18 -1465 11 7
12 2716 1 2855 -5 73 -7 53 -14 -140z"/>
<path d="M7925 9605 c-5 -2 -95 -13 -200 -25 -104 -11 -300 -34 -435 -50 -135
-17 -265 -32 -290 -35 -72 -8 -193 -22 -360 -44 -85 -11 -200 -25 -255 -31
-133 -14 -614 -72 -960 -115 -282 -35 -624 -76 -1010 -120 -115 -13 -318 -37
-450 -54 -132 -17 -301 -37 -375 -45 -74 -8 -227 -26 -340 -40 -345 -43 -851
-105 -920 -111 -36 -4 -191 -22 -345 -40 -154 -18 -311 -36 -350 -40 -38 -3
-169 -19 -290 -35 -121 -16 -272 -34 -335 -40 -179 -18 -245 -66 -287 -209
-17 -58 -14 -88 72 -881 14 -124 34 -317 45 -430 11 -113 36 -356 55 -540 19
-184 53 -508 75 -720 22 -212 43 -408 46 -436 7 -61 15 -57 -137 -79 -63 -9
-117 -19 -121 -21 -4 -3 -17 0 -28 6 -20 11 -20 18 -21 958 -1 521 -4 972 -9
1002 -4 30 -8 -394 -9 -943 -1 -672 2 -1005 9 -1018 13 -24 38 -24 196 -1
l121 18 11 -68 c14 -78 16 -148 5 -148 -5 0 -133 -20 -286 -43 -152 -24 -280
-41 -282 -38 -3 2 -6 767 -6 1700 -1 933 -4 1755 -8 1826 -13 258 -22 -836
-19 -2195 3 -1226 1 -1345 -13 -1348 -12 -2 -18 7 -22 38 -6 48 -72 193 -99
217 -16 14 -20 15 -32 2 -34 -36 -107 -181 -124 -245 l-18 -70 -34 55 c-31 50
-35 63 -34 121 1 46 12 96 38 169 l36 105 0 396 c0 626 -13 2560 -17 2556 -2
-2 -4 -667 -3 -1477 l0 -1473 -35 -71 c-34 -69 -75 -227 -75 -289 0 -28 1 -28
14 -11 13 18 14 18 20 -2 4 -12 25 -49 47 -83 22 -34 38 -64 36 -66 -2 -2 -25
19 -52 46 -27 28 -53 50 -57 50 -4 0 -8 -11 -8 -23 0 -16 25 -50 74 -101 70
-72 116 -145 116 -182 0 -9 -6 -14 -13 -11 -8 3 -27 -5 -43 -19 -16 -13 -32
-23 -37 -24 -4 0 -28 19 -52 41 l-45 42 0 -139 0 -138 31 50 c38 60 83 109
126 135 l33 21 34 -21 c79 -49 146 -151 146 -223 0 -59 -10 -94 -21 -76 -7 10
-9 9 -9 -4 0 -9 -21 -45 -47 -80 -27 -35 -55 -74 -64 -88 -16 -24 -17 -19 -24
118 -4 78 -11 144 -15 147 -11 7 -22 -60 -29 -183 l-6 -103 -45 58 c-57 73
-90 121 -100 148 -6 14 -9 6 -9 -32 -1 -54 24 -108 86 -189 14 -19 23 -34 19
-34 -3 0 -27 28 -52 62 -25 35 -48 65 -50 67 -2 2 -4 -36 -4 -86 0 -77 3 -92
17 -98 35 -14 229 -17 316 -6 48 7 116 21 150 31 66 21 150 71 129 78 -22 7
-13 50 14 71 34 27 40 26 48 -4 7 -29 -20 -89 -56 -122 -88 -83 -375 -139
-565 -110 -49 7 -53 6 -53 -12 0 -17 10 -20 67 -27 217 -23 481 33 586 126
l37 32 0 -223 c0 -133 -4 -218 -9 -210 -5 8 -19 12 -35 9 -14 -3 -26 -1 -26 4
0 5 15 11 33 15 31 7 31 7 7 14 l-25 7 25 2 25 2 -25 8 c-24 8 -24 8 -2 9 38
2 24 21 -16 21 -37 0 -38 -1 -35 -33 2 -17 0 -26 -3 -19 -3 6 -15 12 -26 12
-15 0 -19 -5 -15 -20 3 -11 1 -22 -3 -25 -5 -3 -9 -78 -9 -167 -2 -154 -4
-178 -16 -166 -3 3 -9 146 -12 317 -3 171 -10 311 -15 311 -9 0 -15 -267 -10
-486 l3 -142 -45 -26 c-33 -19 -71 -30 -133 -37 -89 -11 -273 -8 -305 6 -14 5
-18 2 -18 -13 0 -16 9 -21 45 -26 56 -9 243 -9 256 0 6 3 33 6 61 6 28 -1 60
5 72 12 11 8 39 17 60 21 22 4 61 18 88 31 26 13 53 24 60 24 7 -1 -11 -13
-40 -28 -29 -15 -49 -32 -45 -36 4 -5 3 -6 -4 -2 -9 5 -13 -11 -16 -56 l-3
-63 -2 63 c-2 48 -5 62 -17 62 -9 0 -18 -7 -21 -15 -4 -10 -14 -13 -30 -9 -25
6 -35 -12 -11 -22 7 -2 13 -20 12 -41 0 -65 -82 -99 -262 -110 l-103 -6 0 71
c0 39 -4 74 -10 77 -6 4 -10 -20 -10 -64 0 -76 -2 -78 -62 -72 -15 2 -18 -7
-18 -60 0 -60 1 -61 25 -57 15 3 22 1 18 -5 -4 -6 18 -8 63 -5 42 3 61 2 49
-3 -13 -5 -1 -8 37 -6 32 1 58 5 58 10 0 4 19 6 43 6 23 -1 77 8 120 20 42 11
86 21 96 21 11 0 21 3 23 8 2 4 26 18 55 31 52 24 105 68 135 110 12 17 34 25
104 36 123 20 394 74 404 80 5 3 12 -11 15 -32 31 -181 87 -263 210 -305 l50
-17 5 -123 c6 -139 11 -153 82 -211 61 -50 444 -313 1271 -873 979 -664 902
-618 1047 -618 52 0 127 2 165 4 55 3 85 -1 140 -19 70 -23 254 -109 288 -136
18 -13 18 -14 1 -40 -10 -15 -23 -48 -29 -73 -12 -46 -12 -46 -71 -60 -76 -17
-368 -79 -704 -148 -327 -67 -579 -126 -563 -131 12 -4 64 6 498 96 529 111
820 171 827 171 3 0 12 -17 19 -37 28 -87 128 -283 144 -283 20 0 18 6 -48
165 -63 151 -69 202 -32 275 l27 53 37 -84 c47 -104 90 -189 96 -189 6 0 -2
21 -65 163 -28 65 -49 124 -47 130 2 6 30 -44 62 -111 32 -67 60 -120 62 -118
5 4 -94 223 -109 242 -11 15 110 127 202 189 201 134 533 237 758 236 31 -1
73 -1 92 -1 56 0 192 -21 225 -35 34 -14 44 -31 157 -285 41 -91 80 -176 86
-190 l12 -25 -6 25 c-9 33 -160 375 -185 419 -11 18 -18 35 -16 38 9 8 115
-38 134 -60 36 -40 91 -140 153 -282 89 -202 91 -205 113 -216 18 -10 19 -9
14 19 -4 17 -29 80 -56 140 -27 60 -53 120 -56 134 -8 30 -44 21 530 139 215
44 476 98 580 120 105 22 249 51 320 65 72 14 265 54 430 89 770 164 1353 285
1643 340 l233 45 52 -26 c28 -15 69 -38 90 -51 l38 -24 -8 53 c-24 162 6 418
68 580 17 43 29 90 27 105 -3 25 -6 21 -33 -34 -21 -44 -34 -61 -45 -57 -11 4
-12 2 -4 -6 8 -8 6 -30 -11 -83 -12 -40 -28 -109 -35 -154 -8 -46 -17 -83 -21
-83 -19 0 -252 101 -269 117 -2 2 2 8 10 13 10 7 11 10 3 10 -8 0 -13 15 -13
39 0 45 8 71 21 71 5 0 65 -24 134 -54 69 -30 123 -51 120 -47 -2 5 -63 34
-135 67 -114 51 -129 61 -124 79 69 251 188 438 343 540 44 29 61 46 61 62 0
20 -3 21 -24 12 -19 -9 -55 -1 -207 46 -101 32 -278 86 -392 120 -195 59 -214
67 -314 131 -59 38 -107 73 -107 78 -1 5 73 24 164 42 181 36 210 46 210 69 0
15 -95 82 -169 120 -38 19 -28 20 -276 -28 -99 -19 -186 -32 -194 -27 -21 12
-6 16 154 44 192 35 214 42 208 65 -7 27 -198 133 -248 138 -22 2 -98 -7 -170
-21 -152 -31 -275 -44 -260 -28 6 6 69 20 140 31 161 26 227 43 232 58 5 14
-55 56 -170 118 -100 54 -89 53 -287 12 -147 -30 -212 -38 -205 -27 3 5 23 11
45 15 22 4 40 11 40 16 0 9 -55 46 -118 79 -36 19 -42 19 -122 5 -126 -22
-140 -20 -216 27 l-67 42 29 12 c16 6 135 31 264 54 315 56 376 55 511 -13 52
-25 139 -73 194 -105 417 -244 615 -362 925 -548 195 -117 369 -222 385 -234
37 -25 45 -25 45 -1 0 14 -114 86 -452 288 -249 149 -514 306 -588 348 -74 43
-202 118 -283 167 -81 49 -188 109 -237 132 l-90 43 21 19 c31 28 66 92 79
144 l11 46 172 31 c158 28 174 29 195 15 l24 -16 -36 -18 c-20 -10 -36 -24
-36 -32 0 -30 42 -46 210 -79 170 -34 181 -35 373 -33 109 2 201 6 204 10 3 3
-2 6 -13 6 -10 1 -2 7 19 14 21 8 46 12 57 9 20 -5 80 45 80 66 0 6 -13 20
-30 32 l-29 22 36 51 c20 28 42 57 49 65 6 7 67 25 135 40 76 16 124 31 127
40 5 15 -46 11 -141 -13 -29 -8 -65 -16 -80 -20 l-28 -7 16 30 c16 31 25 35
145 61 84 18 90 20 90 36 0 10 -7 13 -22 9 -13 -3 -60 -13 -106 -24 l-83 -19
7 87 c3 47 9 89 13 92 3 4 42 12 85 19 96 15 106 18 106 36 0 10 -7 13 -22 9
-114 -25 -173 -34 -178 -25 -8 13 -33 330 -26 337 6 6 60 18 154 33 50 8 72
16 72 26 0 10 -7 13 -22 10 -81 -18 -201 -36 -206 -32 -3 3 -7 28 -10 55 l-4
49 51 11 c28 6 83 16 121 22 47 8 70 16 70 25 0 8 -1 14 -3 14 -2 0 -53 -9
-113 -20 -138 -25 -134 -25 -134 8 0 28 0 28 125 51 87 16 125 27 125 36 0 15
-19 14 -163 -15 -64 -13 -90 -15 -93 -6 -2 6 -5 47 -6 91 l-3 80 129 22 c71
12 131 25 134 28 14 14 -14 13 -124 -5 -65 -11 -126 -21 -134 -23 -12 -2 -16
16 -22 88 -4 50 -11 115 -16 146 l-8 56 153 23 c113 17 153 27 153 37 0 8 -4
12 -10 8 -5 -3 -69 -14 -143 -25 -74 -11 -141 -22 -149 -25 -25 -10 -32 15
-12 35 13 13 61 26 162 43 78 13 145 27 149 30 17 18 -16 16 -147 -8 -78 -15
-143 -25 -145 -23 -2 2 12 28 32 58 54 84 113 214 113 250 0 31 -2 32 -30 26
-32 -6 -94 -45 -167 -104 -24 -19 -43 -32 -43 -28 0 3 13 38 29 78 15 40 36
103 46 140 16 61 20 67 49 72 17 3 84 13 149 23 71 10 117 22 117 29 0 8 -23
7 -87 -3 -195 -31 -203 -32 -203 -12 0 11 9 21 23 24 103 24 104 24 41 19
l-61 -6 -6 84 c-7 91 -44 216 -70 232 -24 15 -59 -8 -147 -94 -102 -99 -124
-141 -155 -285 -14 -65 -28 -122 -32 -126 -5 -4 -25 -11 -45 -14 -47 -9 -50
-1 -67 150 -7 61 -32 268 -57 460 l-45 350 -48 95 c-27 52 -52 106 -56 120
-22 74 -81 80 -91 9 -3 -19 -12 -65 -20 -104 -26 -121 -27 -148 -5 -306 12
-85 30 -239 41 -344 11 -104 27 -241 36 -302 16 -109 14 -150 -5 -139 -5 3
-11 0 -14 -8 -3 -7 -20 -16 -37 -20 -36 -7 -57 10 -87 69 -9 17 -33 56 -54 87
-44 64 -45 68 -24 68 9 0 27 11 40 25 l25 24 -1 328 c-1 180 -5 443 -9 583 -5
210 -7 152 -8 -327 l-2 -582 -22 -15 c-30 -21 -65 -20 -77 2 -13 25 -159 152
-174 152 -36 -1 -39 -15 -22 -94 9 -42 15 -82 12 -89 -4 -12 -233 -55 -241
-46 -4 4 -34 281 -71 659 -33 325 -27 270 -85 865 -27 281 -57 576 -65 657 -9
81 -22 215 -30 298 -19 202 -47 260 -147 311 -38 19 -139 35 -163 24z m172
-71 c81 -65 77 -49 143 -701 32 -323 75 -759 95 -968 20 -209 49 -513 65 -675
17 -162 46 -461 65 -665 19 -203 50 -527 70 -720 113 -1096 121 -1197 106
-1252 -6 -22 -20 -52 -30 -64 l-19 -23 4 24 c2 14 9 43 15 65 13 43 2 170 -71
880 -31 300 -84 834 -125 1265 -14 146 -41 423 -60 615 -19 193 -46 467 -59
610 -92 938 -122 1248 -143 1435 -7 64 -21 95 -60 132 -44 41 -90 49 -196 33
-51 -7 -121 -16 -157 -20 -60 -6 -260 -29 -785 -91 -115 -13 -259 -31 -320
-39 -60 -8 -227 -28 -370 -45 -143 -16 -429 -50 -635 -75 -206 -25 -490 -59
-630 -75 -140 -17 -347 -41 -460 -55 -113 -14 -394 -48 -625 -75 -478 -57
-768 -92 -1240 -149 -181 -22 -413 -50 -515 -61 -262 -29 -771 -88 -860 -100
-41 -6 -136 -17 -210 -25 -168 -19 -189 -26 -239 -80 -67 -73 -69 -94 -35
-405 47 -443 79 -745 119 -1140 25 -245 74 -722 110 -1060 35 -338 72 -680 80
-760 40 -377 77 -716 90 -830 8 -69 31 -271 50 -450 68 -623 76 -695 86 -732
6 -22 28 -55 55 -82 48 -48 49 -57 6 -30 -47 28 -90 91 -101 147 -6 29 -22
153 -35 277 -57 511 -108 981 -156 1425 -28 259 -59 549 -70 645 -11 96 -33
306 -50 465 -16 160 -41 398 -55 530 -14 132 -36 348 -50 480 -60 590 -78 757
-106 1008 -45 413 -42 467 30 550 42 47 91 64 231 77 63 6 198 22 300 35 102
13 289 36 415 50 329 36 957 110 1570 185 531 65 1048 127 1465 175 217 25
478 56 580 70 102 14 268 34 370 45 102 11 196 22 210 25 14 3 126 16 250 30
124 14 351 41 505 60 1009 123 1192 144 1272 142 63 -2 76 -6 110 -33z m-26
-70 c16 -15 33 -44 38 -64 5 -19 24 -179 41 -355 17 -176 38 -385 46 -465 24
-239 82 -830 104 -1060 53 -569 95 -1009 120 -1245 11 -99 29 -274 40 -390 11
-115 34 -347 51 -514 16 -167 27 -316 24 -332 -7 -31 -47 -65 -64 -55 -5 3 -7
16 -5 29 4 20 4 20 -4 2 -7 -14 -4 -28 9 -47 23 -32 24 -39 4 -32 -8 4 -15 1
-15 -5 0 -6 4 -11 8 -11 5 0 8 -10 8 -22 -1 -13 4 -22 12 -21 6 2 12 -2 12 -8
0 -5 5 -7 11 -3 7 4 10 1 7 -6 -6 -20 -56 -22 -61 -2 -3 9 -3 -21 0 -68 6 -82
13 -121 13 -67 0 19 5 27 18 26 10 0 12 -3 5 -6 -7 -2 -13 -14 -13 -24 0 -11
5 -17 10 -14 6 3 10 -3 10 -14 0 -12 -4 -21 -10 -21 -5 0 -10 5 -10 10 0 6 -4
10 -10 10 -5 0 -1 -14 8 -30 15 -27 15 -32 2 -41 -13 -9 -13 -10 2 -5 9 2 19
0 21 -7 2 -7 2 -1 0 11 -2 14 0 21 6 18 6 -4 8 8 5 29 -2 20 0 35 6 35 9 0 14
-17 13 -47 -1 -7 3 -10 8 -7 5 3 7 15 4 27 -3 12 -7 33 -8 47 0 14 -8 31 -17
38 -13 11 -11 12 14 7 29 -6 29 -6 13 19 -10 14 -17 33 -16 43 1 12 3 10 9 -7
7 -22 8 -21 9 13 1 27 -2 36 -11 31 -8 -5 -9 -2 -5 10 4 10 7 22 7 27 0 5 4 9
8 9 14 0 34 -291 23 -329 -14 -47 -40 -83 -53 -75 -6 4 -8 3 -4 -4 8 -13 -35
-48 -77 -61 -18 -6 -97 -22 -177 -36 -80 -14 -208 -36 -285 -50 -162 -29 -198
-30 -281 -14 -56 11 -65 11 -102 -9 -40 -21 -40 -21 -91 -1 -77 29 -141 25
-220 -13 -36 -18 -69 -31 -73 -30 -5 1 -7 -4 -5 -11 1 -9 -13 -11 -53 -10 -76
4 -112 -4 -151 -30 -36 -24 -195 -60 -452 -102 -160 -26 -332 -57 -647 -115
-118 -22 -271 -49 -340 -60 -272 -45 -471 -80 -590 -104 -69 -14 -179 -34
-245 -45 -168 -27 -580 -99 -640 -112 -27 -5 -68 -14 -90 -19 -22 -5 -78 -16
-125 -25 -47 -9 -94 -20 -105 -25 -11 -5 -94 -21 -185 -35 -91 -14 -246 -41
-345 -60 -99 -18 -200 -37 -225 -40 -25 -3 -101 -17 -170 -30 -69 -14 -195
-36 -280 -49 -145 -24 -157 -28 -180 -55 -24 -28 -34 -31 -265 -71 -132 -23
-302 -53 -378 -66 -223 -41 -279 -33 -330 46 -28 44 -35 96 -142 1070 -8 69
-25 231 -40 360 -14 129 -34 321 -46 425 -11 105 -35 332 -54 505 -35 316 -62
577 -135 1285 -21 209 -53 513 -69 675 -17 162 -42 399 -56 525 -41 369 -42
395 -15 450 34 71 78 95 207 111 139 19 594 72 1138 134 660 75 869 100 885
105 8 2 155 20 325 40 171 20 357 42 415 50 58 8 209 26 335 40 127 14 277 32
335 40 58 8 211 26 340 40 129 14 307 35 395 46 306 39 811 100 990 119 184
21 556 65 835 100 85 11 319 38 520 61 200 22 367 43 370 46 3 3 27 3 53 0 35
-3 56 -12 78 -33z m1160 -1740 c29 -60 31 -57 -48 -69 -49 -8 -51 -3 -32 83 9
43 13 48 32 44 15 -3 31 -22 48 -58z m51 -139 c4 -22 11 -74 17 -115 6 -41 21
-147 35 -235 13 -88 32 -227 41 -310 14 -125 42 -339 94 -707 6 -46 5 -56 -5
-47 -7 6 -11 16 -8 24 3 7 0 16 -7 21 -9 5 -10 2 -6 -9 3 -9 2 -19 -3 -22 -6
-4 -10 7 -10 24 0 16 -5 52 -10 78 -11 54 -97 720 -110 858 -5 50 -18 161 -29
248 -12 87 -21 172 -21 189 l0 31 -47 -7 c-25 -3 -48 -7 -49 -9 -7 -7 62 -486
71 -495 3 -3 5 8 5 24 0 28 -3 59 -35 310 -18 140 -18 144 -6 144 4 0 11 -26
14 -57 4 -32 9 -67 11 -79 33 -160 91 -807 79 -889 -4 -35 -3 -46 5 -41 8 4
10 2 6 -7 -3 -8 -1 -18 5 -22 6 -3 11 -14 11 -23 0 -15 -2 -15 -11 -2 -8 11
-9 9 -3 -10 14 -52 24 -71 34 -65 5 3 10 -4 10 -17 -1 -13 4 -45 9 -73 15 -79
14 -125 -4 -119 -10 4 -12 11 -6 23 7 13 4 20 -10 29 -17 11 -19 10 -15 -10
16 -78 17 -98 3 -98 -17 0 -16 -3 -62 315 -19 132 -44 301 -54 375 -11 74 -34
259 -51 410 -17 151 -34 296 -39 322 -4 26 -5 52 -1 58 10 15 65 29 110 27 32
-2 35 -5 42 -42z m604 -540 c22 -72 26 -98 22 -168 -3 -45 -15 -115 -27 -154
-22 -71 -24 -73 -54 -73 -71 1 -227 52 -227 74 1 31 31 151 49 191 22 49 103
141 165 186 21 16 40 29 42 29 2 0 15 -38 30 -85z m-1094 -105 l33 -30 -24
-20 c-13 -11 -26 -20 -30 -20 -4 0 -12 23 -17 50 -6 28 -7 50 -2 50 4 0 22
-14 40 -30z m161 -202 c30 -52 22 -65 -13 -20 l-22 27 21 -36 21 -37 -49 -21
c-27 -11 -54 -21 -58 -21 -10 0 -53 84 -53 103 0 7 -9 29 -20 50 -11 20 -16
37 -12 37 5 0 29 13 53 29 l43 30 31 -47 c17 -26 43 -68 58 -94z m-218 52 c0
-19 -231 -58 -247 -42 -19 19 2 30 74 36 40 4 89 11 108 16 46 11 65 8 65 -10z
m60 -137 c23 -51 48 -101 57 -110 22 -27 111 -173 107 -177 -2 -2 -92 -18
-199 -35 -107 -18 -203 -35 -212 -37 -22 -6 -26 11 -33 126 -4 52 -10 129 -15
170 -16 139 -25 125 93 143 162 24 153 27 202 -80z m1004 -39 c28 -4 48 -10
46 -14 -3 -5 -14 -6 -24 -3 -16 4 -22 -3 -31 -39 -36 -138 -115 -396 -133
-435 -9 -20 -18 -23 -63 -23 -50 0 -54 2 -61 28 -21 73 -4 262 43 478 l15 71
79 -28 c44 -16 102 -31 129 -35z m-734 -66 c33 -62 74 -135 90 -163 33 -55
105 -217 105 -236 0 -7 -4 -8 -12 -2 -16 12 -99 37 -114 35 -6 -1 -31 30 -54
70 -60 103 -168 278 -192 311 -11 16 -18 30 -16 31 1 1 24 10 50 20 25 9 52
24 58 32 7 7 15 14 19 14 3 0 33 -51 66 -112z m474 80 c0 -7 -6 -46 -13 -86
-12 -67 -28 -103 -41 -91 -8 8 -25 108 -25 145 0 29 3 33 33 37 17 2 35 5 40
5 4 1 7 -4 6 -10z m-313 -133 c20 -123 20 -126 1 -123 -12 2 -40 40 -78 106
-32 57 -59 105 -59 107 0 3 10 5 23 5 12 1 36 7 52 15 17 7 32 14 35 14 3 1
15 -55 26 -124z m815 53 c-4 -13 -18 -28 -30 -34 -13 -7 -28 -17 -34 -24 -10
-10 -7 -12 11 -7 28 6 27 2 -3 -48 -24 -39 -35 -42 -15 -4 19 34 -16 35 -55 0
-20 -17 -39 -31 -44 -31 -4 0 -16 -18 -26 -40 -25 -56 -39 -62 -31 -14 8 42
82 127 166 190 54 40 73 44 61 12z m-691 -92 c0 -39 -6 -30 -13 19 -4 27 -3
35 3 25 5 -8 10 -28 10 -44z m146 -43 c-10 -10 -19 5 -10 18 6 11 8 11 12 0 2
-7 1 -15 -2 -18z m-502 -100 l14 -27 -192 -34 c-105 -18 -211 -34 -236 -35
-42 -2 -45 0 -48 25 -3 25 0 27 45 34 26 3 118 19 203 34 199 36 196 36 214 3z
m256 18 c0 -6 -4 -13 -10 -16 -5 -3 -10 1 -10 9 0 9 5 16 10 16 6 0 10 -4 10
-9z m625 -68 c-31 -51 -65 -89 -65 -72 0 9 6 22 14 28 8 6 19 25 26 41 7 17
19 30 27 30 12 0 11 -5 -2 -27z m-836 -20 c5 -9 6 -26 1 -37 -4 -12 -11 -44
-15 -73 -5 -41 -11 -52 -28 -56 -77 -19 -430 -68 -437 -61 -4 5 -11 45 -14 90
l-7 80 218 36 c258 42 269 43 282 21z m73 -108 c91 -51 185 -67 393 -69 211
-1 260 8 348 63 26 17 48 26 49 21 0 -6 1 -14 2 -20 1 -11 -47 -41 -105 -66
-33 -15 -36 -19 -28 -43 4 -14 13 -100 20 -191 6 -91 19 -264 30 -385 10 -120
17 -220 16 -221 -5 -5 -162 -44 -177 -44 -15 0 -18 21 -23 163 -6 132 -19 413
-30 622 l-2 39 53 8 c30 5 61 13 70 19 12 7 0 8 -43 2 -33 -4 -120 -8 -192 -8
l-133 0 0 -106 c0 -58 -2 -249 -5 -425 -2 -180 -1 -302 4 -280 4 21 9 104 10
185 0 80 4 251 7 379 l7 234 101 -7 c56 -4 102 -8 103 -9 1 -1 9 -161 17 -356
9 -195 18 -377 20 -403 3 -26 3 -53 0 -60 -6 -16 -262 -16 -324 1 -25 6 -52
11 -60 10 -25 -3 -90 14 -90 23 0 5 -3 8 -7 7 -12 -4 -94 39 -126 64 l-28 23
11 120 c6 66 17 203 25 305 18 218 37 430 40 430 2 0 23 -11 47 -25z m-105
-162 c-5 -43 -12 -81 -15 -85 -4 -4 -97 -22 -207 -41 -142 -25 -202 -31 -206
-23 -4 6 -9 45 -13 86 l-6 76 197 31 c109 17 212 31 229 32 l30 1 -9 -77z
m-17 -126 c0 -23 -7 -25 -187 -56 -104 -18 -196 -35 -205 -38 -13 -3 -18 1
-18 16 0 22 -6 20 250 66 79 14 146 28 149 30 8 9 11 5 11 -18z m0 -91 c0 -24
-3 -56 -6 -72 l-6 -29 -185 -33 c-103 -17 -189 -30 -191 -27 -3 3 -6 35 -6 72
l-1 67 175 32 c235 43 220 43 220 -10z m-17 -186 c-4 -5 -86 -22 -182 -39
-182 -33 -190 -33 -191 11 0 11 11 19 33 23 17 3 102 18 187 33 l155 28 3 -24
c2 -14 0 -28 -5 -32z m-6 -87 c-3 -27 -11 -107 -18 -180 l-12 -131 -116 -22
c-64 -11 -130 -23 -147 -26 l-31 -6 -14 164 c-8 89 -14 170 -14 178 0 11 37
21 150 41 83 14 163 27 179 28 28 1 29 1 23 -46z m-8637 -188 c26 -64 34 -98
38 -171 l5 -92 -37 -47 c-41 -55 -49 -52 -11 3 17 25 25 50 24 77 l0 40 -17
-25 c-9 -14 -42 -52 -74 -85 -75 -79 -83 -72 -83 78 0 102 3 118 28 172 42 91
78 148 87 138 4 -4 22 -44 40 -88z m8775 -98 c90 -38 208 -59 368 -64 l157 -6
0 -108 c0 -67 4 -110 11 -115 8 -4 10 29 7 114 l-3 121 75 7 c41 4 85 10 98
15 21 8 22 6 22 -40 0 -26 3 -84 6 -127 4 -51 2 -74 -4 -66 -8 11 -10 11 -15
0 -3 -8 -31 -23 -64 -34 -87 -28 -409 -26 -539 4 -102 23 -238 83 -248 109 -4
9 -4 71 0 139 l7 121 41 -26 c23 -15 59 -35 81 -44z m-8052 21 c2 -18 4 -34 2
-36 -1 -1 -44 -9 -96 -17 -52 -8 -109 -17 -126 -20 -26 -5 -33 -3 -33 11 0 14
-8 16 -55 10 -65 -7 -236 -67 -286 -101 l-36 -24 -6 52 c-4 28 -5 52 -4 53 7
7 568 102 608 103 23 1 27 -4 32 -31z m8847 -32 c0 -2 -7 -7 -16 -10 -8 -3
-12 -2 -9 4 6 10 25 14 25 6z m-8836 -58 c3 -18 8 -67 12 -109 l6 -75 -118
-17 c-66 -10 -159 -26 -209 -36 -49 -10 -91 -17 -93 -16 -2 2 13 28 33 60 20
31 50 84 66 118 l29 62 122 21 c68 12 128 22 134 23 7 1 14 -14 18 -31z m-314
7 c0 -13 -88 -166 -122 -212 -37 -51 -125 -128 -220 -191 -26 -18 -48 -32 -51
-32 -2 0 -18 17 -35 39 l-31 39 17 52 c22 70 112 168 200 218 78 43 242 102
242 87z m8184 -120 c1 -66 8 -132 14 -147 6 -16 10 -28 9 -28 -1 0 -63 -11
-137 -24 -74 -14 -136 -23 -138 -21 -3 3 -32 252 -32 281 0 19 11 22 133 41
72 11 135 20 139 19 5 0 10 -55 12 -121z m-385 -32 c-2 -31 -3 -33 -6 -10 -3
18 -9 25 -16 20 -7 -4 -6 0 2 10 19 24 21 22 20 -20z m535 -73 c177 -70 446
-93 655 -56 51 9 96 15 98 12 3 -3 -11 -8 -30 -11 -32 -6 -36 -11 -47 -52 -21
-87 -61 -143 -100 -143 -7 0 -10 27 -8 83 l3 82 -25 -3 c-14 -2 -26 -5 -27 -6
-1 -1 -3 -31 -5 -66 -2 -36 -8 -71 -12 -79 -6 -9 -5 -12 5 -9 7 2 17 24 22 47
5 24 11 41 13 38 6 -6 -12 -86 -21 -95 -11 -12 -213 -8 -225 4 -6 6 -13 47
-17 92 -8 111 -26 106 -21 -6 l3 -88 -45 8 c-72 13 -109 28 -120 48 -5 10 -13
50 -16 89 -4 39 -11 71 -17 71 -10 0 -3 -123 9 -155 6 -14 -3 -12 -44 9 -58
29 -104 81 -121 135 -15 52 -15 95 2 88 6 -3 48 -20 91 -37z m906 25 c0 -2
-18 -14 -40 -25 -22 -11 -40 -18 -40 -15 0 2 17 13 38 24 42 23 42 23 42 16z
m-8890 -151 c10 -107 11 -137 1 -143 -12 -8 -205 -40 -369 -61 -46 -6 -95 -15
-109 -21 -58 -22 -58 -22 75 136 93 112 103 139 45 130 -67 -11 -128 -24 -148
-31 -15 -5 -12 2 13 27 32 34 35 34 230 65 108 17 209 32 223 33 l25 1 14
-136z m-827 91 c-3 -9 -8 -14 -10 -11 -3 3 -2 9 2 15 9 16 15 13 8 -4z m9604
-17 c-3 -8 -6 -5 -6 6 -1 11 2 17 5 13 3 -3 4 -12 1 -19z m-1377 -48 c0 -5 -7
-10 -16 -10 -8 0 -12 5 -9 10 3 6 10 10 16 10 5 0 9 -4 9 -10z m474 -16 c10
-27 7 -34 -16 -34 -13 -1 -78 -11 -145 -23 l-121 -23 -5 23 c-5 27 -10 25 143
52 134 24 137 24 144 5z m-8254 -12 c0 -4 -39 -45 -87 -92 -48 -47 -82 -78
-75 -69 14 19 4 33 -14 18 -7 -6 -19 -9 -26 -6 -7 2 -25 -2 -39 -9 -24 -12
-27 -11 -37 10 -10 22 -6 27 46 62 30 22 92 51 136 66 88 30 96 32 96 20z
m8907 -14 c-3 -8 -6 -5 -6 6 -1 11 2 17 5 13 3 -3 4 -12 1 -19z m-615 -52 l17
-24 -122 -22 c-67 -12 -141 -26 -164 -30 -47 -8 -53 -5 -53 21 0 11 9 21 23
24 41 9 262 52 272 53 6 1 18 -9 27 -22z m171 -65 c11 -9 23 -24 29 -34 9 -17
8 -17 -19 -3 -48 26 -84 52 -98 73 -14 20 -14 20 28 0 23 -11 50 -27 60 -36z
m179 -54 c14 -26 6 -30 -40 -22 -26 4 -51 18 -72 40 l-32 33 67 -17 c41 -10
71 -23 77 -34z m355 27 c-3 -3 -12 -4 -19 -1 -8 3 -5 6 6 6 11 1 17 -2 13 -5z
m-50 -10 c-3 -3 -12 -4 -19 -1 -8 3 -5 6 6 6 11 1 17 -2 13 -5z m-8538 -105
c7 -56 11 -103 9 -105 -4 -3 -335 -59 -396 -66 -19 -2 -26 4 -36 32 -12 35
-11 36 51 105 35 38 63 75 63 82 0 6 15 15 33 18 112 19 206 33 233 34 l31 1
12 -101z m8471 92 c-1 -33 -53 -51 -127 -44 -49 5 -63 10 -71 27 -9 21 -7 21
94 22 57 0 104 -2 104 -5z m45 -10 c-3 -5 3 -12 12 -14 10 -3 6 -4 -9 -4 -28
1 -34 8 -21 20 10 10 25 8 18 -2z m-8932 -101 c-90 -85 -250 -189 -267 -173
-3 4 -6 2 -6 -4 0 -5 -6 -10 -12 -11 -7 0 -44 -12 -83 -25 -38 -14 -71 -23
-73 -22 -6 5 29 57 76 113 47 57 116 101 197 129 54 18 191 51 215 52 8 0 -13
-26 -47 -59z m432 -150 c0 -24 -4 -25 -190 -56 -239 -41 -227 -41 -223 -6 l3
27 185 32 c102 17 194 31 205 30 14 -2 20 -9 20 -27z m6396 -74 c46 -18 124
-50 174 -70 49 -21 146 -53 216 -72 160 -43 231 -70 349 -132 52 -27 156 -81
231 -120 127 -66 176 -95 409 -237 47 -29 176 -113 288 -189 111 -75 209 -136
216 -136 12 0 248 -72 491 -149 50 -16 123 -39 163 -51 l73 -21 -80 -75 c-126
-119 -207 -253 -261 -435 -17 -58 -34 -140 -37 -185 l-6 -81 -73 33 c-160 74
-369 145 -489 165 -43 7 -39 7 25 4 41 -3 89 -7 105 -10 19 -3 14 1 -15 11
-58 20 -208 28 -285 15 -56 -9 -54 -10 30 -4 50 3 87 2 83 -2 -3 -3 -39 -9
-80 -12 -40 -2 -122 -16 -183 -29 -233 -51 -368 -52 -661 -8 -191 29 -418 89
-679 179 -206 72 -299 95 -475 120 -161 22 -259 42 -380 76 -189 53 -248 100
-236 189 8 58 48 117 94 138 60 27 375 21 612 -12 224 -31 264 -32 417 -5 132
23 212 20 302 -12 30 -10 56 -17 59 -15 11 11 -83 59 -135 69 -56 10 -61 13
-89 61 -40 68 -162 190 -261 260 -77 55 -107 89 -143 160 l-15 30 -3 -31 c-3
-27 -7 -31 -43 -36 -81 -11 -322 23 -382 54 -12 6 -39 27 -59 47 -44 42 -48
34 -13 -27 l26 -44 -33 -35 c-50 -52 -168 -132 -195 -132 -14 0 -44 14 -69 30
-41 29 -63 28 -29 0 9 -7 25 -26 36 -42 20 -28 20 -30 3 -81 -33 -100 -167
-204 -276 -215 -41 -4 -53 -1 -73 18 -29 28 -32 52 -8 76 10 9 25 33 34 53 21
46 158 237 258 360 109 136 227 258 276 286 61 36 109 39 383 26 268 -14 644
-3 665 18 12 12 -19 13 -408 16 -121 0 -282 5 -357 9 l-137 9 37 45 c55 68
115 102 178 102 28 0 152 -24 275 -54 123 -30 262 -61 309 -70 94 -16 260 -26
260 -15 0 3 -44 14 -97 24 -54 9 -138 26 -188 37 -49 10 -97 20 -105 22 -8 2
-28 8 -44 15 -15 6 -33 11 -40 10 -6 -1 -18 0 -26 4 -22 8 -72 18 -92 18 -10
0 -18 4 -18 9 0 4 -16 8 -36 8 -19 0 -38 3 -41 6 -10 10 21 38 62 58 52 24
107 18 216 -26z m233 0 c80 -37 220 -116 214 -121 -4 -4 -115 32 -213 70 -38
15 -94 36 -123 47 -29 11 -50 24 -47 29 13 21 97 9 169 -25z m-6620 7 c2 -10
8 -55 11 -100 7 -80 6 -83 -20 -105 -19 -17 -28 -37 -33 -73 -7 -47 -9 -50
-42 -56 -19 -3 -93 -16 -165 -28 -71 -12 -140 -25 -153 -28 l-22 -5 2 168 3
167 25 8 c14 4 57 12 95 18 39 7 117 20 175 30 58 10 108 19 112 20 4 0 9 -7
12 -16z m5731 -133 c-11 -11 -44 -23 -75 -28 -30 -5 -230 -41 -445 -80 -214
-39 -496 -89 -625 -111 -747 -130 -1765 -313 -1855 -333 -57 -13 -58 -13 -63
0 -6 20 70 37 563 123 94 17 355 63 580 103 226 41 480 86 565 101 85 14 279
49 430 76 151 27 327 58 390 69 196 35 341 62 430 80 47 10 94 18 105 19 19 1
19 1 0 -19z m1382 -71 c36 -20 143 -98 143 -104 0 -4 -209 100 -230 114 -30
21 48 12 87 -10z m-1538 -40 c-24 -17 -66 -53 -94 -79 -48 -47 -54 -49 -160
-70 -146 -29 -154 -38 -81 -85 92 -59 77 -76 -94 -110 -67 -14 -163 -32 -214
-40 -127 -21 -136 -24 -136 -38 1 -6 49 -43 108 -82 84 -55 114 -69 140 -67
22 1 32 -2 32 -12 0 -16 -9 -20 -95 -36 -114 -22 -122 -33 -50 -76 43 -25 53
-43 28 -51 -6 -2 -41 17 -78 42 -81 54 -87 54 -275 17 -159 -32 -169 -42 -88
-93 29 -18 72 -49 96 -67 l42 -34 153 27 c83 15 156 28 161 29 5 0 11 -5 13
-11 3 -8 -10 -15 -36 -19 -48 -8 -77 -26 -67 -43 4 -6 48 -39 98 -73 l91 -61
89 6 c147 10 102 -14 -108 -55 -396 -78 -680 -132 -703 -132 -13 -1 -26 4 -28
10 -2 6 34 18 89 28 109 21 168 37 168 46 0 11 -40 44 -123 100 l-79 54 -96
-13 c-54 -7 -135 -17 -181 -21 -71 -7 -92 -14 -129 -40 -42 -30 -45 -30 -63
-14 -10 9 -19 20 -19 24 0 3 53 17 118 29 121 24 152 35 152 52 0 5 -45 38
-100 74 -111 72 -116 73 -240 50 -41 -7 -79 -11 -83 -8 -20 12 16 24 138 43
137 23 165 32 165 56 0 18 -210 155 -230 149 -8 -2 -69 -13 -134 -25 -70 -12
-127 -27 -137 -36 -16 -14 -24 -15 -71 -3 -64 16 -64 15 -49 32 9 11 0 22 -46
53 -62 41 -77 44 -278 47 -72 1 -86 -2 -143 -31 l-62 -32 -70 45 c-39 25 -70
49 -70 55 0 5 10 12 23 15 39 9 275 53 507 94 124 22 389 70 590 107 201 36
406 72 455 80 50 7 137 22 195 33 58 10 238 42 400 70 162 29 376 67 475 85
236 44 240 44 184 5z m-5555 -31 c10 -39 7 -44 -9 -14 -17 33 -18 36 -6 36 5
0 11 -10 15 -22z m-14 -28 c0 -4 -9 -10 -21 -13 -16 -4 -18 -3 -8 9 8 10 8 14
0 14 -6 0 -11 7 -11 17 0 14 2 14 20 -2 11 -10 20 -21 20 -25z m34 -72 c8 -50
36 -302 33 -304 -7 -5 -419 -84 -452 -86 l-40 -3 -3 172 c-2 172 -2 173 20
178 48 10 404 73 420 74 12 1 19 -9 22 -31z m-567 -55 c-3 -10 -5 -4 -5 12 0
17 2 24 5 18 2 -7 2 -21 0 -30z m-23 -34 c-3 -6 -2 -14 4 -18 6 -4 5 -11 -4
-19 -12 -11 -14 -9 -14 11 0 13 3 27 7 30 10 11 15 8 7 -4z m-27 -41 c-3 -7
-5 -2 -5 12 0 14 2 19 5 13 2 -7 2 -19 0 -25z m3325 -285 c223 -155 257 -176
334 -219 70 -38 89 -44 140 -44 l59 1 -24 19 c-13 11 -33 20 -45 20 -23 0 -97
36 -213 102 -59 34 -70 44 -61 55 33 41 139 67 209 52 24 -5 141 -58 258 -117
244 -122 273 -145 383 -302 81 -116 199 -258 304 -365 84 -86 191 -172 201
-162 3 4 -57 71 -134 151 -175 181 -199 225 -150 281 17 20 35 28 70 32 47 6
83 -9 71 -28 -3 -5 29 -46 71 -91 143 -152 368 -523 394 -650 19 -88 17 -197
-3 -258 -23 -67 -117 -233 -127 -222 -4 4 -29 45 -54 92 -41 74 -46 80 -41 48
6 -47 52 -143 111 -232 25 -38 44 -70 43 -72 -2 -1 -61 -7 -133 -14 -357 -32
-620 -123 -850 -294 -20 -15 -22 -13 -49 59 -16 41 -33 75 -38 75 -6 0 -8 -6
-5 -12 2 -7 15 -45 27 -84 l23 -71 -34 -31 c-19 -17 -37 -32 -41 -32 -4 0 -26
31 -50 69 l-43 70 -99 36 c-238 89 -428 235 -617 475 -45 57 -208 292 -239
345 -125 211 -187 281 -315 356 -112 65 -135 86 -165 145 l-19 39 -1 -31 c0
-37 -8 -41 -94 -50 -85 -9 -132 7 -153 51 -15 32 -15 35 10 77 35 61 62 82
148 122 166 77 211 74 388 -23 190 -104 230 -122 259 -119 32 4 41 24 10 23
-17 0 -57 36 -143 125 -66 69 -139 148 -162 175 -47 57 -64 56 -34 -3 l21 -40
-53 -12 c-28 -6 -83 -18 -122 -25 -38 -8 -85 -19 -104 -24 -56 -17 -83 28 -45
75 15 19 15 19 6 -1 -5 -11 -6 -29 -2 -40 7 -18 8 -17 15 10 3 17 12 41 18 54
14 28 159 160 271 246 69 53 82 59 124 59 26 0 64 -8 84 -18 39 -19 182 -134
321 -258 48 -44 83 -68 92 -64 19 7 20 26 1 26 -8 0 -16 6 -19 14 -6 15 -233
220 -315 284 -30 23 -58 40 -63 36 -27 -16 14 50 65 104 66 72 125 96 195 81
19 -4 79 -38 133 -76z m2890 71 l-23 -16 23 -17 c13 -10 49 -33 81 -52 32 -19
75 -44 95 -56 44 -27 97 -29 192 -8 90 20 117 19 125 -3 3 -11 43 -41 90 -68
46 -27 87 -54 89 -61 5 -11 -103 50 -183 104 -19 13 -45 23 -58 23 -45 0 -364
-70 -385 -84 -19 -14 -9 -34 12 -21 6 3 10 2 10 -4 0 -6 17 -19 38 -30 20 -11
33 -20 27 -20 -5 0 -30 11 -55 24 -25 14 -55 30 -68 37 -18 9 -40 9 -103 -2
-136 -22 -97 -6 59 24 183 36 194 40 190 67 -2 16 -30 37 -98 75 -52 29 -96
57 -98 63 -3 10 36 41 52 41 6 0 0 -7 -12 -16z m-5562 -19 c0 -14 -2 -25 -5
-25 -7 0 -436 -79 -462 -85 -19 -4 -23 -1 -23 19 0 22 6 25 98 41 53 9 156 30
227 45 166 36 165 36 165 5z m2366 18 c-14 -23 -91 -45 -256 -73 -227 -37
-400 -68 -680 -119 -137 -25 -219 -36 -225 -30 -16 15 8 25 108 42 51 9 187
32 302 52 235 41 422 75 600 110 132 26 159 29 151 18z m-2906 -47 c0 -2 -8
-10 -17 -17 -16 -13 -17 -12 -4 4 13 16 21 21 21 13z m550 -46 c0 -23 -11 -26
-250 -73 -265 -52 -262 -52 -258 -25 3 26 -8 23 318 83 102 18 186 34 188 34
1 1 2 -8 2 -19z m2270 14 c0 -3 -13 -23 -30 -44 -27 -33 -35 -38 -84 -42 -46
-4 -65 -12 -127 -57 -39 -29 -77 -54 -83 -57 -63 -21 -70 -26 -57 -33 11 -7 9
-11 -8 -20 -16 -9 -27 -8 -51 4 -28 14 -39 14 -123 0 -140 -24 -160 -30 -164
-42 -3 -7 24 -33 59 -59 58 -42 66 -46 106 -40 26 3 41 2 37 -4 -10 -16 -102
-38 -405 -96 -412 -79 -404 -77 -408 -96 -7 -38 212 -168 258 -153 21 7 338
65 353 65 7 0 5 -6 -3 -14 -8 -8 -84 -28 -168 -44 -85 -16 -158 -34 -163 -39
-18 -18 4 -44 85 -97 121 -79 119 -78 194 -70 37 3 75 8 85 10 9 1 17 -1 17
-5 0 -5 -21 -12 -47 -16 -93 -14 -90 -38 14 -107 96 -63 145 -81 207 -73 l51
6 -33 -15 c-67 -31 -51 -62 78 -150 l75 -51 80 1 c79 1 79 1 40 -12 -22 -7
-61 -13 -87 -13 -53 -1 -66 7 -315 190 -163 119 -478 349 -585 427 -40 29
-111 81 -158 117 -165 125 -179 134 -184 126 -3 -4 5 -17 17 -28 31 -27 439
-329 742 -548 83 -60 194 -142 248 -182 146 -108 178 -125 245 -127 31 -1 80
2 108 7 l51 8 144 -142 c140 -139 140 -153 -1 -19 -52 49 -83 75 -75 61 4 -8
8 -26 7 -41 0 -20 12 -37 58 -76 33 -27 108 -101 167 -164 59 -63 129 -136
155 -162 28 -28 42 -48 33 -48 -47 0 -161 61 -336 179 -107 73 -312 211 -455
309 -144 97 -340 230 -435 294 -96 64 -226 152 -289 195 -590 403 -717 491
-747 519 -34 32 -34 33 -18 64 21 41 94 74 195 90 88 13 313 53 455 80 371 71
573 108 950 175 138 25 264 49 280 54 38 12 45 12 45 5z m3843 -51 c-7 -2 -21
-2 -30 0 -10 3 -4 5 12 5 17 0 24 -2 18 -5z m-6856 -120 c-3 -10 -5 -2 -5 17
0 19 2 27 5 18 2 -10 2 -26 0 -35z m6096 -20 c-7 -2 -19 -2 -25 0 -7 3 -2 5
12 5 14 0 19 -2 13 -5z m946 -47 c-8 -7 -230 -47 -242 -43 -6 2 25 9 68 17 44
7 89 17 100 21 20 8 82 12 74 5z m-7152 -32 c-3 -3 -12 -4 -19 -1 -8 3 -5 6 6
6 11 1 17 -2 13 -5z m-134 -21 c-7 -2 -19 -2 -25 0 -7 3 -2 5 12 5 14 0 19 -2
13 -5z m1399 -255 c169 -122 831 -576 1393 -954 672 -452 686 -461 762 -483
37 -11 99 -23 136 -26 63 -6 67 -8 54 -23 -7 -10 -31 -45 -51 -79 -43 -72 -64
-82 -132 -63 -54 15 -65 35 -69 125 -2 48 -6 62 -24 74 -18 11 -24 12 -34 1
-9 -10 -9 -11 2 -5 11 6 13 3 8 -14 -3 -12 1 -45 9 -73 9 -27 13 -52 11 -55
-9 -8 -118 68 -112 78 4 5 0 15 -7 22 -25 23 -77 57 -88 57 -5 0 -10 5 -10 10
0 6 -7 10 -16 10 -8 0 -13 4 -10 8 3 5 0 9 -7 10 -48 4 -73 14 -136 56 -43 28
-69 51 -65 58 4 7 3 8 -4 4 -15 -9 -273 164 -265 177 3 6 1 7 -5 3 -11 -7
-163 88 -170 106 -2 4 -8 8 -13 8 -11 0 -876 588 -1071 727 -65 46 -121 89
-124 96 -4 7 2 4 13 -5 11 -10 26 -18 34 -18 8 0 20 -5 27 -12 9 -9 12 -9 12
0 0 7 -4 12 -9 12 -5 0 -11 7 -15 15 -5 14 -2 13 24 0 l30 -16 0 31 c0 16 -5
30 -12 30 -6 0 -9 3 -6 6 6 5 177 -106 206 -133 7 -7 19 -13 25 -13 15 0 4 9
-88 70 -135 89 -322 239 -300 240 6 0 49 -28 97 -62z m-68 -96 c8 -25 -9 -31
-18 -6 -3 9 -5 41 -5 72 l1 57 8 -50 c4 -28 10 -61 14 -73z m4961 -53 c-11 -5
-141 -32 -290 -59 -148 -28 -349 -66 -445 -85 -103 -20 -179 -30 -184 -25 -13
13 -10 13 244 61 124 23 313 59 420 80 190 36 299 49 255 28z m108 -45 c34 -9
74 -13 89 -10 42 8 34 -11 -9 -24 -21 -6 -220 -46 -443 -90 -223 -44 -422 -85
-443 -91 -48 -13 -74 -50 -59 -83 13 -30 49 -55 308 -212 303 -184 290 -177
345 -176 45 1 298 50 574 112 209 47 305 67 565 120 135 27 272 59 305 70 39
14 81 20 120 19 33 -1 65 0 70 1 17 6 85 -10 85 -20 0 -6 5 -10 11 -10 5 0 7
6 3 13 -4 6 -4 9 1 5 4 -4 17 -3 29 3 20 9 20 9 3 -5 -17 -13 -14 -15 36 -26
42 -10 63 -10 87 -1 18 6 40 11 49 10 27 -1 -66 -27 -204 -58 -71 -16 -134
-30 -140 -32 -5 -1 -28 6 -49 15 -37 17 -45 17 -120 2 -736 -141 -856 -169
-856 -198 0 -16 -44 -27 -260 -67 -124 -23 -288 -55 -365 -71 -77 -16 -189
-38 -250 -50 -60 -12 -135 -28 -165 -35 -30 -8 -72 -16 -93 -18 -37 -4 -38 -4
-31 22 13 43 11 183 -3 231 -7 25 -22 83 -33 130 -13 58 -42 129 -89 222 -38
76 -67 140 -63 142 8 5 69 17 357 71 105 20 267 51 360 70 200 40 200 40 278
19z m345 -53 c42 -11 138 -33 212 -51 74 -18 234 -60 355 -95 121 -34 255 -70
298 -80 99 -24 102 -42 9 -78 -49 -19 -173 -49 -347 -82 -66 -12 -246 -50
-400 -83 -746 -161 -700 -156 -790 -101 -33 20 -161 98 -285 173 -123 74 -228
143 -233 152 -22 39 16 51 353 118 179 36 390 79 470 95 276 57 260 56 358 32z
m-4283 -71 c3 -5 -1 -10 -10 -10 -9 0 -13 5 -10 10 3 6 8 10 10 10 2 0 7 -4
10 -10z m60 0 c-3 -5 -10 -10 -16 -10 -5 0 -9 5 -9 10 0 6 7 10 16 10 8 0 12
-4 9 -10z m390 -160 c3 -5 1 -10 -4 -10 -6 0 -11 5 -11 10 0 6 2 10 4 10 3 0
8 -4 11 -10z m-55 -15 c-7 -8 -18 -15 -24 -15 -6 0 -2 7 8 15 25 19 32 19 16
0z m4885 -34 c-3 -12 -10 -21 -15 -21 -4 0 -3 11 3 24 14 29 22 27 12 -3z
m-4957 13 c-8 -7 -68 -12 -63 -4 2 4 18 7 36 8 17 0 29 -1 27 -4z m5052 -4 c0
-5 -4 -10 -9 -10 -6 0 -13 5 -16 10 -3 6 1 10 9 10 9 0 16 -4 16 -10z m114
-20 c4 -5 -11 -4 -35 1 -24 6 -46 13 -49 16 -8 9 74 -8 84 -17z m918 -21 c62
-23 117 -45 122 -50 10 -9 22 -6 -244 -59 -113 -23 -297 -61 -410 -86 -201
-44 -706 -146 -1085 -219 -104 -20 -345 -70 -535 -110 -190 -40 -462 -97 -605
-125 -143 -28 -329 -67 -413 -86 -85 -19 -162 -34 -171 -34 -16 0 -15 9 13 84
17 46 39 89 48 95 18 11 708 152 976 199 151 26 162 27 162 11 0 -32 22 -67
50 -79 19 -8 45 -8 96 0 151 23 792 152 833 168 69 25 119 94 91 127 -13 16
60 34 416 101 137 26 308 59 379 74 72 15 138 28 147 29 9 0 67 -18 130 -40z
m-875 15 c-3 -3 -12 -4 -19 -1 -8 3 -5 6 6 6 11 1 17 -2 13 -5z m83 -14 c20
-6 21 -8 5 -8 -11 0 -33 4 -50 8 -27 7 -27 8 -5 8 14 0 36 -4 50 -8z m100 -20
l25 -8 -25 0 c-14 0 -36 4 -50 8 l-25 8 25 0 c14 0 36 -4 50 -8z m1533 -99
c50 -21 100 -41 110 -44 9 -4 17 -10 17 -15 0 -5 -29 1 -65 14 -95 34 -189 84
-160 84 3 0 47 -17 98 -39z m-513 -16 c95 -22 278 -84 330 -111 25 -14 67 -40
93 -59 44 -31 46 -35 25 -39 -13 -3 -104 -23 -203 -45 -99 -22 -333 -72 -520
-110 -414 -86 -608 -126 -915 -192 -129 -28 -332 -70 -450 -94 -206 -41 -786
-161 -1185 -244 -104 -22 -221 -46 -260 -54 -38 -8 -90 -17 -115 -21 l-45 -5
-29 58 c-15 33 -41 75 -57 94 -30 36 -142 100 -197 112 -20 4 -30 11 -25 16 8
8 290 72 488 109 126 24 547 111 725 150 74 16 266 54 425 85 358 70 478 94
1170 239 303 63 561 116 575 119 51 9 107 6 170 -8z m-1463 -19 c25 -22 26
-26 14 -52 -8 -16 -15 -24 -16 -19 -2 6 -6 23 -10 39 -6 27 -8 28 -48 23 -23
-3 -125 -22 -227 -42 -102 -20 -279 -54 -394 -75 -217 -40 -246 -52 -262 -103
-5 -14 -8 -16 -14 -7 -12 19 8 65 33 79 21 11 830 178 874 180 12 1 34 -10 50
-23z m-77 -85 c0 -22 -60 -38 -335 -90 -88 -17 -232 -44 -319 -61 -88 -17
-161 -28 -164 -26 -2 3 -2 12 2 21 9 24 61 42 156 55 47 6 195 33 330 60 353
70 330 67 330 41z m-4036 -548 c38 -40 67 -76 63 -79 -7 -8 -48 30 -81 74 -13
19 -40 50 -58 70 -18 21 -51 60 -72 87 -30 38 -26 35 20 -15 32 -36 90 -98
128 -137z m-414 -58 c11 -13 10 -14 -4 -9 -9 3 -16 10 -16 15 0 13 6 11 20 -6z"/>
<path d="M7815 9305 c-5 -3 -125 -18 -265 -34 -666 -79 -1461 -175 -1665 -201
-82 -11 -267 -34 -410 -51 -327 -38 -669 -80 -985 -119 -135 -16 -393 -48
-575 -70 -320 -39 -623 -76 -1310 -160 -181 -22 -422 -51 -535 -65 -113 -15
-335 -41 -495 -60 -539 -64 -527 -62 -552 -88 -40 -39 -41 -67 -11 -337 27
-252 80 -764 98 -952 14 -139 57 -548 85 -803 22 -196 72 -675 110 -1055 7
-74 23 -214 34 -310 11 -96 34 -303 51 -460 17 -157 35 -325 40 -375 6 -49 19
-175 30 -280 46 -435 51 -456 106 -469 32 -8 509 76 2089 368 515 96 943 173
1205 217 96 16 272 47 390 69 222 40 750 133 1135 200 121 21 373 66 560 99
187 34 444 79 570 102 127 22 286 51 355 64 69 13 197 35 285 49 201 32 231
41 252 72 23 36 26 -2 -97 1234 -22 223 -47 468 -55 545 -23 209 -72 719 -95
980 -11 127 -22 241 -25 255 -5 26 -64 607 -91 895 -8 88 -21 216 -29 285 -7
69 -19 186 -26 260 -12 132 -13 136 -45 168 -27 27 -39 32 -75 31 -24 0 -48
-2 -54 -4z m-317 -275 c34 0 43 -3 32 -10 -8 -5 -27 -10 -42 -10 -22 0 -27 -5
-30 -27 -4 -34 -22 -37 -26 -4 -3 21 -7 23 -43 17 -23 -4 -39 -2 -39 4 0 5 18
13 40 16 35 6 40 10 40 34 0 39 14 48 18 11 3 -30 5 -31 50 -31z m-908 -240
c0 -60 2 -70 18 -69 9 0 118 15 242 33 205 30 251 33 236 19 -3 -4 -459 -72
-485 -73 -8 0 8 -279 18 -327 15 -61 36 -83 90 -90 52 -7 53 -19 2 -28 -50 -8
-81 -42 -88 -94 -8 -56 -21 -61 -29 -11 -10 62 -32 83 -95 90 l-54 6 56 26
c75 35 82 54 80 255 -1 86 -3 159 -6 163 -5 8 -367 -37 -376 -48 -4 -4 -1
-125 6 -270 13 -235 16 -269 36 -309 17 -35 32 -50 66 -65 l44 -19 -41 -30
c-40 -29 -79 -94 -80 -131 0 -31 -18 -19 -24 16 -9 45 -50 84 -103 97 l-43 11
43 28 c91 61 99 104 82 419 -8 135 -14 248 -15 250 0 5 -53 -2 -500 -64 -212
-29 -411 -57 -443 -60 -37 -5 -61 -13 -64 -22 -4 -10 20 -39 69 -83 170 -156
259 -341 274 -569 26 -394 -196 -739 -555 -862 -255 -88 -575 -3 -768 204 -79
85 -114 137 -158 233 -60 131 -69 180 -69 359 1 148 3 167 28 245 119 362 406
589 746 590 132 0 208 -24 413 -128 4 -2 7 5 7 16 0 21 10 25 95 36 22 3 234
33 470 66 237 33 518 71 625 85 107 14 203 28 213 31 14 4 17 17 17 75 0 39 4
69 10 69 6 0 10 -30 10 -70z m1410 -129 c-8 -5 -60 -14 -115 -21 -99 -11 -168
-20 -740 -99 -385 -53 -405 -55 -405 -43 0 5 44 15 98 21 53 7 277 37 497 67
569 78 596 82 640 83 27 0 35 -2 25 -8z m-4650 -195 c0 -28 47 -95 83 -119 15
-10 49 -22 76 -29 47 -11 61 -28 22 -28 -10 0 -39 -14 -65 -31 -57 -38 -101
-110 -111 -182 l-7 -52 -15 61 c-24 104 -100 173 -190 174 l-38 1 65 30 c95
44 136 91 155 177 7 35 25 34 25 -2z m2732 -11 c6 -28 -11 -48 -31 -36 -9 6
-10 11 -2 15 6 4 11 16 11 27 0 28 17 23 22 -6z m-472 -56 c4 -16 16 -27 38
-34 40 -12 40 -18 0 -36 -19 -8 -35 -24 -38 -37 -7 -33 -24 -32 -28 1 -3 22
-8 27 -32 27 -41 0 -46 16 -10 32 22 9 32 22 36 46 7 37 26 38 34 1z m-1495
12 c-6 -5 -53 -14 -105 -20 -52 -7 -113 -14 -135 -18 -30 -4 -37 -3 -29 6 6 6
58 18 115 25 131 17 166 18 154 7z m3293 -27 c3 -23 -18 -37 -43 -28 -16 6
-20 35 -8 48 14 14 48 1 51 -20z m-5403 -29 c0 -22 -31 -33 -47 -17 -17 17 -1
44 24 40 15 -2 23 -10 23 -23z m761 -54 c-10 -16 -36 -13 -43 5 -8 22 18 37
36 20 7 -8 10 -19 7 -25z m4356 -46 c35 -41 69 -117 84 -185 34 -164 -41 -335
-180 -408 -72 -38 -180 -37 -259 2 -86 42 -87 51 -4 51 60 0 83 6 139 32 82
39 151 105 186 181 24 51 27 69 27 167 0 94 -3 116 -22 154 -13 25 -23 47 -23
49 0 7 32 -20 52 -43z m918 -54 c-25 -14 -710 -111 -777 -111 -53 1 -1 17 92
29 50 6 160 20 245 31 85 11 211 29 280 39 143 22 183 25 160 12z m-4300 -44
c0 -15 6 -17 33 -13 79 13 187 17 187 8 0 -9 -27 -14 -157 -28 -52 -5 -63 -10
-63 -25 0 -27 -18 -33 -22 -7 -2 13 -8 22 -13 22 -88 -12 -125 -14 -125 -6 0
5 21 13 48 16 72 11 82 15 82 40 0 12 3 26 7 29 9 9 23 -13 23 -36z m2170 22
c16 -30 8 -59 -22 -82 -25 -19 -28 -19 -52 -4 -33 22 -41 52 -22 82 22 33 80
35 96 4z m180 -8 c0 -9 -72 -21 -128 -21 -48 0 -32 13 26 21 71 10 102 10 102
0z m-4475 -30 c-12 -12 -153 -27 -143 -16 4 4 31 11 60 15 79 11 93 11 83 1z
m4175 -9 c0 -9 -262 -53 -269 -46 -10 10 14 17 116 34 127 21 153 23 153 12z
m-2635 -82 c3 -6 -4 -10 -17 -10 -66 -1 -68 -4 -67 -109 1 -224 20 -291 97
-330 l36 -18 -31 -17 c-37 -19 -73 -62 -73 -87 0 -32 -17 -29 -41 9 -13 20
-41 48 -62 61 l-37 25 34 27 c62 52 68 78 60 265 l-7 165 -36 -5 c-20 -3 -97
-13 -171 -21 -74 -9 -162 -20 -195 -25 -33 -4 -64 -4 -69 0 -12 12 0 14 274
48 268 34 296 36 305 22z m-1169 -95 c18 -19 23 -31 19 -48 -9 -27 -33 -47
-59 -47 -52 0 -76 75 -34 104 31 22 45 20 74 -9z m474 17 c0 -5 -39 -15 -87
-21 -290 -42 -364 -49 -349 -33 4 4 96 19 204 33 238 32 232 31 232 21z m5150
-34 c6 -24 13 -48 15 -55 2 -6 23 -16 47 -20 l43 -9 -46 -21 c-44 -20 -46 -23
-53 -72 -8 -61 -21 -59 -30 3 l-7 44 -50 6 c-53 7 -57 20 -10 31 40 9 51 24
58 84 3 28 9 51 14 51 5 0 13 -19 19 -42z m-1704 -16 c-7 -6 -257 -41 -305
-42 -76 -1 -11 16 137 36 147 19 181 20 168 6z m724 -29 c0 -5 -9 -14 -20 -21
-17 -10 -23 -10 -36 3 -14 13 -14 17 0 31 9 8 16 20 16 27 0 6 9 1 20 -11 11
-12 20 -25 20 -29z m-2730 27 c0 -13 -9 -14 -250 -45 -112 -14 -206 -28 -209
-30 -5 -6 -4 -88 5 -270 l7 -130 43 -43 c34 -33 42 -47 35 -60 -5 -9 -13 -29
-19 -43 -8 -20 -20 -28 -47 -33 -41 -8 -58 2 -87 51 -17 29 -16 30 18 73 l35
44 -6 181 c-9 251 2 229 -103 220 -141 -11 -84 10 78 29 110 13 365 47 493 65
4 1 7 -3 7 -9z m-2036 -19 c9 -14 -55 -24 -468 -76 -292 -37 -332 -40 -306
-26 8 4 96 18 195 31 140 18 527 72 567 79 4 0 9 -3 12 -8z m775 -83 c1 -38
12 -46 86 -61 l20 -4 -20 -7 c-58 -20 -70 -32 -79 -74 -11 -45 -29 -51 -34
-11 -6 35 -21 49 -56 49 -33 0 -64 14 -50 23 5 2 24 8 41 12 42 9 63 39 63 91
0 76 28 59 29 -18z m3316 -18 c-3 -5 -24 -10 -46 -10 -24 0 -38 4 -34 10 3 6
24 10 46 10 24 0 38 -4 34 -10z m-145 -9 c0 -5 -13 -11 -29 -14 -49 -10 -216
-20 -210 -13 5 5 138 26 227 35 6 0 12 -3 12 -8z m-1940 -70 c-8 -5 -46 -12
-85 -16 -38 -4 -103 -13 -143 -20 -40 -7 -75 -9 -78 -4 -5 9 21 15 161 33 122
17 166 19 145 7z m-1812 -27 c-4 -3 -105 -19 -225 -34 -120 -16 -303 -41 -407
-55 -104 -14 -201 -25 -215 -24 l-26 1 25 8 c14 5 147 25 295 45 149 20 313
42 365 49 101 15 197 20 188 10z m127 -80 c-50 -193 31 -365 217 -462 45 -24
64 -27 143 -27 49 0 101 4 115 9 l25 8 -28 -30 c-16 -17 -57 -43 -90 -58 -132
-61 -278 -26 -385 91 -63 69 -83 127 -85 243 -2 90 10 136 54 225 43 86 56 86
34 1z m5185 -5 c0 -14 -46 -26 -69 -17 l-24 8 24 23 c22 21 26 22 46 7 12 -8
23 -18 23 -21z m-940 21 c0 -5 -5 -10 -11 -10 -6 0 -72 -9 -147 -21 -196 -30
-726 -97 -731 -93 -13 12 39 21 341 60 183 24 371 50 418 58 106 17 130 19
130 6z m-2530 -30 c0 -10 -10 -12 -185 -35 -66 -9 -132 -18 -147 -21 -16 -3
-28 -1 -28 5 0 10 18 14 225 42 72 9 131 17 133 18 1 1 2 -3 2 -9z m4205 -90
c-20 -9 -483 -76 -600 -87 -33 -3 -57 -2 -53 2 4 4 139 27 300 50 293 43 393
53 353 35z m-1015 -175 l5 -120 76 4 c63 2 77 0 82 -13 12 -31 -25 -52 -117
-65 -49 -8 -91 -10 -96 -5 -11 11 -16 296 -6 313 4 6 18 11 29 9 21 -3 22 -10
27 -123z m-4370 70 c0 -7 7 -16 16 -19 15 -6 14 -9 -7 -29 -22 -21 -26 -22
-46 -7 -25 17 -30 40 -9 40 7 0 16 9 19 21 6 22 27 18 27 -6z m4167 9 c11 -29
-12 -49 -68 -57 -78 -11 -96 -52 -23 -52 34 0 39 -3 42 -24 4 -29 -20 -51 -55
-51 -20 0 -23 -5 -23 -35 l0 -36 64 7 c69 7 82 0 72 -40 -5 -20 -15 -24 -92
-35 -66 -9 -89 -9 -100 0 -11 9 -14 43 -14 154 0 162 1 165 79 176 84 12 111
10 118 -7z m-356 -34 c38 -21 19 -65 -31 -72 l-25 -3 0 -124 c0 -106 -2 -125
-17 -135 -33 -21 -43 7 -46 133 l-4 118 -43 -5 c-38 -4 -44 -2 -50 18 -10 33
7 43 103 61 48 9 88 17 90 18 2 0 12 -4 23 -9z m-4756 -87 c1 -2 49 4 106 12
109 15 176 19 166 9 -4 -4 -180 -32 -273 -44 -9 -1 -7 -155 1 -185 11 -36 17
-42 58 -54 47 -15 63 -31 30 -31 -34 0 -83 -38 -83 -64 0 -36 -12 -86 -20 -86
-4 0 -11 21 -15 48 -11 71 -19 80 -73 84 l-47 3 51 27 c48 25 51 30 64 85 12
51 15 147 4 164 -2 3 -27 2 -56 -2 -242 -38 -561 -79 -567 -73 -10 10 20 16
265 49 142 20 282 39 309 43 l50 7 4 50 4 50 10 -45 c6 -25 11 -46 12 -47z
m2200 67 c-18 -8 -372 -60 -409 -60 -9 0 -16 4 -16 9 0 4 39 14 88 20 293 41
378 49 337 31z m2184 -58 c14 -10 37 -34 49 -53 34 -48 28 -132 -12 -184 -36
-47 -105 -79 -152 -70 -47 8 -101 58 -116 107 -22 74 26 183 96 214 39 18 101
11 135 -14z m-2801 -24 c-4 -11 -348 -71 -357 -62 -10 9 11 15 135 35 71 11
147 24 169 29 57 11 57 11 53 -2z m2435 -12 c3 -8 7 -78 8 -156 2 -149 -4
-175 -39 -154 -12 8 -18 28 -20 73 l-3 61 -32 -1 c-18 -1 -45 -4 -62 -8 -29
-6 -30 -8 -35 -76 -5 -67 -6 -70 -30 -70 l-25 0 0 155 0 155 25 0 c23 0 25 -4
28 -49 l3 -49 56 7 c31 4 60 9 64 12 5 3 6 23 3 45 -7 43 7 69 36 69 10 0 20
-6 23 -14z m2247 -36 c0 -5 -6 -10 -14 -10 -8 0 -21 -3 -30 -6 -9 -3 -16 -1
-16 4 0 10 19 18 48 21 6 0 12 -3 12 -9z m-120 -20 c0 -5 -9 -10 -21 -10 -11
0 -17 5 -14 10 3 6 13 10 21 10 8 0 14 -4 14 -10z m-400 -40 c0 -5 -4 -10 -10
-10 -5 0 -10 5 -10 10 0 6 5 10 10 10 6 0 10 -4 10 -10z m-3503 -262 c40 -82
70 -155 67 -163 -11 -28 -51 -17 -74 21 -19 30 -26 34 -51 30 -16 -4 -42 -8
-58 -12 -22 -4 -32 -14 -44 -45 -17 -44 -42 -59 -63 -38 -12 13 -7 36 37 169
53 158 71 193 98 188 9 -2 47 -66 88 -150z m3783 91 c0 -15 -5 -20 -22 -17
-34 5 -37 38 -4 38 20 0 26 -5 26 -21z m-4179 -15 c15 -40 7 -306 -9 -312 -7
-2 -52 35 -100 82 -49 47 -91 86 -94 86 -3 0 -3 -42 0 -93 4 -74 2 -95 -10
-105 -20 -16 -47 -5 -53 22 -2 11 -6 80 -8 153 -6 187 6 194 130 71 l83 -83 0
87 c0 47 3 93 6 102 10 26 43 19 55 -10z m-451 -65 c7 -13 10 -63 8 -134 -3
-105 -5 -116 -28 -141 -66 -71 -176 -69 -214 4 -16 31 -32 208 -21 241 8 25
50 29 59 5 3 -9 6 -55 6 -104 0 -103 10 -120 70 -120 54 0 64 22 61 137 -2 94
8 133 34 133 8 0 19 -9 25 -21z m-920 -45 c0 -16 -16 -19 -25 -4 -8 13 4 32
16 25 5 -4 9 -13 9 -21z m4945 3 c29 -16 48 -37 68 -76 23 -48 27 -66 27 -144
0 -78 -3 -96 -25 -133 -14 -23 -39 -51 -57 -62 -55 -33 57 -15 -1468 -237
-1013 -148 -1303 -191 -1625 -240 -165 -25 -347 -52 -405 -60 -125 -17 -431
-62 -735 -110 -364 -57 -389 -59 -438 -37 -80 36 -108 93 -110 226 -2 77 2 98
21 139 28 55 82 104 132 117 41 10 103 20 1275 185 490 69 982 139 1095 156
248 36 1196 171 1440 205 96 13 279 39 405 58 285 42 346 44 400 13z m-4585
-43 c6 -14 10 -70 10 -125 l0 -100 88 3 c83 3 87 2 90 -19 2 -13 -4 -25 -15
-31 -24 -12 -200 -35 -212 -28 -15 10 -26 293 -11 311 19 22 39 18 50 -11z
m-497 -41 c11 -64 31 -83 88 -83 58 0 65 -15 12 -25 -45 -8 -83 -30 -83 -48 0
-7 -6 -22 -14 -32 -13 -17 -14 -17 -27 11 -10 21 -25 32 -52 38 -37 10 -53 8
-385 -38 -51 -7 -89 -9 -84 -4 5 5 101 23 213 39 112 16 217 34 232 40 39 16
65 53 73 105 7 51 19 50 27 -3z m5673 -129 c20 -29 27 -29 268 7 151 22 143
22 130 9 -13 -13 -342 -63 -370 -56 -16 4 -23 0 -27 -14 -6 -23 -53 -37 -76
-23 -9 6 -17 24 -19 40 -6 60 62 87 94 37z m-5837 -198 c-6 -7 -213 -35 -218
-30 -10 9 10 14 109 27 99 12 119 13 109 3z m211 -205 c-25 -15 -100 -24 -100
-13 0 12 28 19 80 20 24 1 30 -1 20 -7z m-185 -30 c-27 -11 -125 -23 -125 -16
0 12 47 24 95 24 35 0 44 -3 30 -8z m-160 -19 c-12 -11 -245 -46 -253 -38 -10
11 3 15 103 29 121 18 162 20 150 9z m5388 -3 c50 -14 103 -61 118 -107 20
-59 16 -189 -8 -243 -38 -84 -66 -98 -296 -135 -206 -33 -670 -105 -967 -150
-91 -13 -266 -40 -390 -60 -124 -19 -369 -57 -545 -84 -176 -27 -473 -74 -660
-104 -342 -56 -510 -83 -1342 -217 -495 -79 -495 -79 -561 -24 -47 39 -63 86
-69 195 -5 87 -3 103 16 144 24 49 68 92 117 112 17 7 116 25 220 39 396 55
1074 155 1704 251 162 25 414 62 560 84 743 110 1454 217 1890 284 188 29 167
28 213 15z m-5788 -58 c-3 -6 -20 -11 -38 -11 -36 0 -26 16 13 22 30 5 34 3
25 -11z m6465 -314 c0 -21 4 -23 31 -19 24 3 30 1 27 -9 -2 -8 -17 -15 -31
-17 -22 -3 -27 -8 -27 -33 0 -16 -4 -29 -10 -29 -5 0 -10 12 -10 26 0 24 -3
26 -31 20 -22 -4 -29 -2 -27 7 3 6 17 13 31 15 22 3 27 8 27 33 0 16 5 29 10
29 6 0 10 -10 10 -23z m-5876 -66 c7 -11 -19 -18 -109 -26 -87 -9 -78 6 13 21
89 15 90 15 96 5z m-239 -40 c-9 -8 -417 -71 -457 -71 -10 0 -18 4 -18 8 0 5
93 22 208 39 225 33 281 38 267 24z m6555 -341 c0 -5 -3 -10 -6 -10 -3 0 -155
-25 -337 -55 -183 -30 -395 -64 -472 -75 -77 -12 -148 -23 -157 -26 -10 -3
-18 -1 -18 5 0 12 50 22 335 66 127 19 318 50 425 69 224 39 230 39 230 26z
m-6262 -73 c12 -24 11 -31 -2 -52 -19 -29 -49 -39 -76 -25 -28 15 -36 55 -15
86 23 35 74 31 93 -9z m4140 -6 c24 -12 54 -39 69 -63 25 -37 28 -51 28 -122
0 -73 -3 -85 -29 -123 -38 -56 -102 -97 -173 -112 -62 -12 -376 -62 -813 -131
-146 -22 -440 -70 -655 -105 -680 -112 -687 -113 -759 -71 -68 40 -106 108
-106 191 0 81 33 143 99 189 35 25 73 33 363 81 177 29 397 65 488 79 465 72
956 151 1130 181 219 38 292 39 358 6z m-4279 -41 c-8 -4 -41 -11 -74 -15 -33
-4 -145 -20 -249 -36 -171 -27 -237 -32 -196 -15 25 10 514 83 524 78 5 -3 2
-8 -5 -12z m5379 -2 c18 -18 14 -63 -7 -82 -26 -24 -62 -17 -80 15 -13 24 -13
29 2 53 19 28 63 36 85 14z m-120 -63 c-7 -7 -471 -85 -505 -85 -60 1 7 18
172 44 94 15 190 31 215 36 52 9 126 12 118 5z m1152 -43 c0 -5 -127 -30 -282
-56 -156 -26 -373 -62 -483 -81 -110 -19 -384 -66 -610 -105 -225 -38 -458
-78 -517 -88 -60 -11 -108 -15 -108 -11 0 13 -12 11 660 124 118 20 260 45
315 55 55 10 172 30 260 44 88 14 288 48 445 75 311 54 320 55 320 43z m-670
-210 c0 -5 -179 -41 -397 -80 -219 -40 -569 -104 -778 -142 -437 -81 -839
-150 -863 -150 -53 1 38 22 253 59 132 23 398 70 590 106 193 35 503 92 690
126 187 33 372 66 410 73 91 17 95 18 95 8z m195 -112 c0 -7 -6 -15 -12 -17
-8 -3 -13 4 -13 17 0 13 5 20 13 18 6 -3 12 -11 12 -18z m-5705 -30 c0 -26
-19 -35 -37 -18 -13 13 -12 17 2 32 19 19 35 13 35 -14z m1005 -51 c-28 -8
-461 -78 -860 -139 -110 -16 -337 -52 -505 -78 -276 -44 -360 -53 -304 -31 10
4 186 33 389 64 204 32 566 88 805 125 239 37 451 68 470 68 l35 0 -30 -9z
m290 -158 c-10 -8 -1512 -262 -1550 -261 -66 2 59 27 475 95 1182 196 1092
182 1075 166z m2014 -35 c-3 -3 -76 -16 -164 -30 -382 -59 -517 -78 -521 -73
-6 6 51 16 381 67 225 36 314 46 304 36z m-59 -116 c0 -5 -11 -10 -25 -10 -18
0 -25 -5 -25 -20 0 -15 7 -20 28 -21 27 -1 27 -1 3 -8 -37 -10 -38 -31 -2 -31
17 0 31 -4 31 -10 0 -5 -4 -10 -9 -10 -5 0 -23 -3 -40 -6 l-31 -6 0 60 c0 39
4 62 13 65 22 9 57 7 57 -3z m-140 -20 c0 -5 -7 -10 -15 -10 -11 0 -15 -13
-15 -54 0 -58 -19 -90 -21 -37 -1 17 -3 36 -4 41 -1 6 -3 17 -4 25 0 8 -11 15
-23 15 -22 1 -23 1 -4 15 22 17 86 20 86 5z m-1465 -29 c-6 -5 -64 -16 -130
-25 -66 -10 -196 -30 -290 -46 -93 -16 -314 -52 -490 -80 -176 -28 -354 -58
-395 -66 -137 -26 -978 -164 -997 -163 -51 1 56 23 419 84 216 36 467 79 558
95 91 16 266 45 390 65 124 20 360 58 525 85 392 64 428 69 410 51z m740 0
c-13 -12 -110 -28 -875 -151 -69 -11 -142 -24 -163 -29 -28 -7 -37 -6 -34 2 4
13 101 31 577 108 179 29 359 58 400 65 97 15 106 16 95 5z m553 -7 c45 -31
14 -114 -43 -114 -26 0 -65 31 -65 53 0 6 9 27 20 45 22 36 52 42 88 16z
m-228 -72 c0 -48 0 -49 30 -44 35 5 41 -13 8 -22 -54 -14 -58 -10 -58 54 0 33
4 60 10 60 6 0 10 -22 10 -48z m547 -58 c-3 -3 -12 -4 -19 -1 -8 3 -5 6 6 6
11 1 17 -2 13 -5z m-2017 -24 c0 -9 -11 -12 -130 -30 -147 -22 -146 -8 1 19
128 23 129 23 129 11z m1903 3 c-7 -2 -19 -2 -25 0 -7 3 -2 5 12 5 14 0 19 -2
13 -5z m-56 -9 c-3 -3 -12 -4 -19 -1 -8 3 -5 6 6 6 11 1 17 -2 13 -5z m-60
-10 c-3 -3 -12 -4 -19 -1 -8 3 -5 6 6 6 11 1 17 -2 13 -5z m-54 -11 c-7 -2
-19 -2 -25 0 -7 3 -2 5 12 5 14 0 19 -2 13 -5z m-46 -9 c-3 -3 -12 -4 -19 -1
-8 3 -5 6 6 6 11 1 17 -2 13 -5z m-2057 -19 c0 -5 -502 -95 -529 -95 -9 0 -11
3 -5 9 5 5 106 26 224 46 118 20 231 40 250 44 31 7 60 5 60 -4z m1997 9 c-3
-3 -12 -4 -19 -1 -8 3 -5 6 6 6 11 1 17 -2 13 -5z m-54 -11 c-7 -2 -21 -2 -30
0 -10 3 -4 5 12 5 17 0 24 -2 18 -5z m-70 -10 c-7 -2 -21 -2 -30 0 -10 3 -4 5
12 5 17 0 24 -2 18 -5z m-66 -9 c-3 -3 -12 -4 -19 -1 -8 3 -5 6 6 6 11 1 17
-2 13 -5z m-977 -21 c0 -5 -129 -30 -288 -57 -443 -74 -482 -83 -506 -106 -57
-53 -131 15 -76 70 26 26 54 25 77 -3 l18 -23 200 32 c110 18 274 46 365 62
177 32 210 36 210 25z m-900 -152 c0 -5 -30 -13 -67 -19 -82 -12 -887 -149
-1133 -191 -172 -30 -258 -39 -215 -22 11 5 108 23 215 41 107 18 413 70 680
115 529 90 520 89 520 76z m-160 -189 c0 -8 -131 -32 -139 -25 -9 7 7 13 60
22 74 12 79 12 79 3z m-195 -37 c-55 -14 -112 -19 -102 -8 9 9 75 21 117 21
32 0 31 -1 -15 -13z m-167 -30 c-7 -7 -320 -56 -325 -51 -9 9 14 14 167 39
126 20 170 24 158 12z m-408 -64 c0 -5 -19 -12 -42 -16 -24 -3 -59 -9 -78 -12
-24 -4 -32 -2 -25 5 6 6 37 15 70 20 33 5 63 10 68 11 4 0 7 -3 7 -8z m-224
-40 c-3 -5 -31 -12 -62 -16 -32 -4 -63 -9 -71 -12 -7 -3 -13 -1 -13 5 0 6 24
15 53 20 70 13 99 14 93 3z"/>
<path d="M4552 8560 c-250 -67 -456 -274 -542 -545 -32 -99 -39 -308 -15 -426
37 -186 168 -384 323 -491 109 -75 276 -128 401 -128 201 1 375 76 532 230 76
74 93 98 138 190 77 160 94 240 89 424 -4 131 -8 162 -32 231 -66 192 -238
387 -411 465 -118 54 -157 63 -285 66 -101 3 -139 0 -198 -16z m286 -30 c145
-24 260 -86 378 -204 164 -165 224 -305 224 -525 0 -116 -18 -210 -60 -318
-56 -145 -153 -237 -300 -282 -41 -13 -103 -36 -138 -52 -54 -25 -73 -29 -155
-29 -188 0 -322 55 -453 185 -154 152 -228 334 -235 575 -1 30 -4 45 -6 33 -2
-13 -8 -23 -12 -23 -10 0 5 -172 23 -255 18 -88 47 -155 92 -218 32 -45 35
-52 23 -73 -10 -20 -10 -27 6 -44 10 -11 13 -20 7 -20 -6 0 -9 -8 -6 -17 4
-12 -1 -9 -14 7 -11 13 -20 27 -20 30 0 3 0 12 -1 20 -1 13 -3 13 -12 0 -9
-13 -10 -12 -5 3 8 25 -5 82 -15 66 -4 -8 -10 -11 -12 -9 -12 14 -71 200 -74
234 -3 22 -9 48 -14 58 -6 10 -7 23 -4 28 3 6 3 16 -2 23 -5 8 -10 2 -15 -18
-4 -16 -5 24 -3 90 6 159 23 230 87 362 55 112 198 249 325 312 32 16 92 36
133 46 41 9 80 18 85 20 22 7 113 4 173 -5z m-550 -1242 c2 -10 -2 -18 -9 -18
-7 0 -9 3 -5 7 3 4 -4 13 -16 20 l-23 13 25 -2 c14 -2 26 -10 28 -20z m931
-51 c-75 -68 -89 -78 -101 -71 -7 4 -8 3 -4 -4 4 -7 -6 -18 -25 -27 -17 -9
-28 -12 -25 -6 4 6 -9 5 -31 -3 -69 -25 -93 -39 -93 -55 0 -14 -2 -14 -9 -1
-6 8 -8 17 -6 21 3 3 -8 4 -23 2 -23 -3 -24 -2 -7 6 11 5 28 10 39 10 27 1
234 104 281 140 56 43 58 38 4 -12z m-954 -14 l18 -28 -21 19 c-12 11 -22 23
-22 28 0 14 7 9 25 -19z m150 -37 c19 -15 19 -15 1 -16 -15 0 -56 34 -56 47 0
5 30 -12 55 -31z m-104 -3 c13 -16 12 -17 -3 -4 -10 7 -18 15 -18 17 0 8 8 3
21 -13z m149 -71 c8 -3 17 -6 20 -6 3 -1 15 -7 28 -14 12 -7 26 -11 31 -8 4 3
8 -1 8 -9 0 -8 -1 -15 -3 -15 -11 0 -165 64 -169 70 -4 7 44 -3 85 -18z m585
-2 c-3 -5 -11 -10 -16 -10 -6 0 -7 5 -4 10 3 6 11 10 16 10 6 0 7 -4 4 -10z
m-168 -66 c-3 -3 -12 -4 -19 -1 -8 3 -5 6 6 6 11 1 17 -2 13 -5z m-120 -10
c-3 -3 -12 -4 -19 -1 -8 3 -5 6 6 6 11 1 17 -2 13 -5z"/>
<path d="M4817 8381 c-85 -56 -83 -171 3 -260 76 -79 161 -105 234 -73 104 47
115 164 26 266 -69 78 -197 111 -263 67z m187 -45 c64 -37 101 -96 101 -159 0
-42 -4 -52 -33 -78 -59 -53 -162 -31 -236 51 -50 55 -63 106 -41 154 10 20 29
43 44 52 38 21 110 12 165 -20z"/>
<path d="M4211 8233 c-58 -99 -75 -174 -67 -303 13 -242 95 -423 260 -577 118
-110 249 -166 441 -188 87 -10 63 3 -29 16 -264 36 -469 190 -582 434 -53 115
-74 210 -74 334 0 122 15 188 64 284 19 37 33 67 31 67 -2 0 -22 -30 -44 -67z"/>
<path d="M4548 8150 c-74 -22 -128 -99 -128 -182 0 -127 135 -230 247 -187 64
24 123 109 123 179 0 73 -58 153 -132 184 -41 17 -68 19 -110 6z m122 -45 c61
-32 96 -109 80 -179 -10 -47 -62 -103 -107 -115 -90 -25 -194 59 -193 156 1
45 36 111 72 133 39 24 107 26 148 5z"/>
<path d="M5205 7895 c-32 -31 -33 -81 -2 -126 44 -66 92 -69 117 -9 16 40 1
96 -36 134 -33 32 -48 33 -79 1z m68 -30 c36 -35 27 -120 -11 -113 -26 5 -56
69 -48 101 7 30 35 36 59 12z"/>
<path d="M4880 7684 c-83 -75 -72 -192 24 -241 82 -42 196 36 196 134 0 70
-72 143 -141 143 -31 0 -48 -8 -79 -36z m131 -10 c30 -15 59 -65 59 -102 0
-30 -55 -99 -85 -106 -37 -9 -90 10 -109 39 -9 13 -16 45 -16 71 0 39 5 51 34
80 38 38 70 43 117 18z"/>
<path d="M6040 7247 c-49 -38 -64 -103 -34 -145 59 -84 187 -6 154 94 -17 52
-84 80 -120 51z"/>
<path d="M3911 6899 c-16 -47 -14 -52 16 -44 16 4 29 8 31 10 4 4 -27 65 -32
65 -2 0 -9 -14 -15 -31z"/>
<path d="M6934 6726 c-45 -45 -46 -86 -3 -128 28 -29 34 -30 84 -25 47 5 56 3
76 -19 22 -23 59 -33 59 -15 0 5 -16 23 -36 40 -29 26 -35 37 -30 56 8 32 -15
88 -45 109 -36 25 -67 20 -105 -18z m100 -12 c9 -8 16 -29 16 -46 0 -61 -59
-89 -100 -48 -27 27 -25 56 5 85 28 29 57 32 79 9z"/>
<path d="M3705 6240 c-7 -11 0 -118 8 -126 3 -3 19 -3 36 1 38 8 43 35 6 27
-18 -3 -25 0 -25 11 0 9 10 17 23 19 27 4 26 22 -3 26 -28 5 -25 19 5 26 14 4
25 11 25 16 0 13 -67 13 -75 0z"/>
<path d="M3621 6186 l-33 -47 -33 38 c-39 45 -48 35 -43 -43 3 -55 20 -62 28
-12 l5 32 18 -28 19 -28 33 32 33 32 4 -28 c2 -16 7 -28 13 -26 10 3 8 53 -4
99 l-7 27 -33 -48z"/>
<path d="M3361 6174 c-40 -51 -15 -104 50 -106 39 -1 69 30 69 73 0 57 -82 80
-119 33z m87 -41 c-4 -34 -32 -52 -55 -37 -27 17 -28 50 -2 68 31 21 61 4 57
-31z"/>
<path d="M3260 6130 c-11 -22 -23 -40 -27 -40 -3 0 -21 17 -39 38 -32 36 -33
36 -33 12 -1 -48 12 -100 24 -100 8 0 10 10 7 28 l-5 27 27 -25 c30 -27 27
-28 63 27 11 16 12 16 12 -9 1 -26 17 -46 28 -35 8 8 -17 117 -28 117 -5 0
-18 -18 -29 -40z"/>
<path d="M3038 6088 c2 -35 8 -67 12 -72 13 -14 29 2 23 24 -7 26 14 26 43 -1
14 -13 24 -17 28 -10 4 6 -2 16 -13 23 -15 9 -18 19 -14 40 7 37 -12 58 -51
58 l-32 0 4 -62z m52 16 c0 -9 -5 -14 -12 -12 -18 6 -21 28 -4 28 9 0 16 -7
16 -16z"/>
<path d="M2968 6132 c-33 -4 -38 -16 -30 -83 6 -49 10 -54 33 -57 14 -2 31 4
39 12 11 14 8 16 -19 16 -38 0 -43 27 -6 36 28 7 24 24 -6 24 -10 0 -19 7 -19
15 0 8 9 15 19 15 20 0 37 16 24 22 -5 2 -20 2 -35 0z"/>
<path d="M2853 6113 c-34 -6 -32 -56 2 -71 14 -6 25 -18 25 -27 0 -9 -9 -15
-25 -15 -14 0 -25 -4 -25 -10 0 -15 56 -12 70 5 16 20 3 54 -26 65 -29 12 -31
27 -4 32 12 2 21 7 21 13 1 12 -9 14 -38 8z"/>
<path d="M2725 6080 c-10 -33 4 -60 31 -60 18 0 24 -5 24 -21 0 -18 -4 -20
-26 -15 -19 5 -25 3 -22 -6 3 -7 18 -13 34 -13 26 0 29 3 29 35 0 28 -4 35
-24 40 -34 8 -38 28 -7 40 34 13 33 20 -3 20 -21 0 -32 -6 -36 -20z"/>
<path d="M2665 6080 c-3 -5 -3 -32 1 -60 5 -41 4 -51 -10 -56 -25 -10 -39 10
-46 61 -3 25 -9 46 -15 45 -5 0 -10 -4 -9 -10 1 -5 2 -30 3 -55 1 -36 6 -48
26 -61 23 -15 27 -15 50 0 22 14 25 24 25 76 0 55 -11 83 -25 60z"/>
<path d="M7024 6091 c-11 -5 -33 -23 -47 -41 -56 -66 -18 -170 62 -170 20 0
46 7 58 15 19 13 23 13 46 -5 14 -11 32 -20 41 -20 26 0 18 28 -14 47 -20 12
-28 23 -24 33 3 8 8 29 11 46 10 60 -74 119 -133 95z m85 -57 c26 -34 26 -43
-2 -85 -28 -42 -75 -51 -106 -20 -45 45 -10 131 54 131 24 0 39 -7 54 -26z"/>
<path d="M7022 6028 c-7 -7 -12 -24 -12 -38 0 -52 61 -71 82 -25 23 51 -32
101 -70 63z"/>
<path d="M3559 5496 c-2 -2 -2 -34 -1 -71 l4 -66 31 7 c18 3 40 13 50 22 20
18 23 82 5 100 -11 11 -79 17 -89 8z m69 -57 c2 -27 -1 -38 -14 -43 -21 -8
-20 -9 -29 42 -7 42 -6 44 16 40 20 -2 25 -10 27 -39z"/>
<path d="M3440 5420 c0 -56 3 -70 15 -70 9 0 15 9 15 22 l0 21 24 -22 c14 -14
30 -20 37 -16 8 6 5 13 -12 26 -19 14 -22 20 -11 30 31 32 3 79 -47 79 -19 0
-21 -6 -21 -70z m55 20 c0 -8 -8 -16 -17 -18 -13 -2 -18 3 -18 18 0 15 5 20
18 18 9 -2 17 -10 17 -18z"/>
<path d="M3319 5451 c-16 -13 -23 -29 -23 -54 0 -44 18 -67 54 -67 58 0 87 84
41 122 -29 23 -43 23 -72 -1z m61 -25 c28 -34 -11 -94 -44 -67 -21 18 -20 57
2 70 23 14 28 13 42 -3z"/>
<path d="M3250 5436 c0 -8 -5 -27 -11 -43 l-11 -28 -19 38 c-21 39 -39 48 -39
20 -1 -10 -7 -31 -14 -48 l-14 -30 -16 37 c-16 38 -29 52 -39 42 -8 -8 51
-124 62 -124 5 0 16 17 24 37 l14 37 17 -32 c9 -18 20 -32 24 -32 5 0 16 26
26 58 10 31 21 63 23 70 3 6 -2 12 -11 12 -9 0 -16 -6 -16 -14z"/>
<path d="M3002 5408 c-19 -19 -14 -46 13 -64 33 -22 32 -44 -2 -44 -19 0 -24
-3 -16 -11 6 -6 23 -9 39 -7 23 2 30 9 32 31 3 22 -3 31 -27 45 -36 20 -39 32
-11 39 11 3 20 9 20 14 0 13 -34 11 -48 -3z"/>
<path d="M2892 5388 c-19 -19 -14 -35 19 -61 33 -26 33 -49 -1 -40 -25 7 -26
-13 -2 -26 14 -7 25 -6 40 5 36 25 22 74 -20 74 -11 0 -18 7 -18 19 0 14 5 18
20 14 14 -4 20 0 20 11 0 19 -40 22 -58 4z"/>
<path d="M2771 5337 c-29 -67 -36 -97 -22 -97 6 0 11 4 11 10 0 14 73 25 78
11 2 -6 10 -11 18 -11 11 0 9 11 -10 48 -13 26 -31 56 -39 67 -15 19 -16 18
-36 -28z m43 -23 c9 -23 8 -24 -14 -24 -19 0 -27 20 -13 33 11 11 20 8 27 -9z"/>
<path d="M2644 5355 c-5 -12 -3 -60 6 -133 1 -13 20 13 20 28 0 11 9 24 20 30
35 19 43 47 20 70 -24 24 -58 26 -66 5z m56 -24 c0 -3 -5 -13 -10 -21 -12 -19
-35 2 -27 24 6 15 37 12 37 -3z"/>
<path d="M5191 5035 c-23 -20 -31 -35 -31 -58 0 -38 7 -50 38 -66 26 -14 92 2
92 22 0 7 3 22 6 35 6 20 3 22 -30 22 -25 0 -36 -4 -36 -15 0 -9 9 -15 21 -15
18 0 19 -2 9 -15 -16 -19 -44 -19 -60 1 -21 24 -1 67 36 79 38 12 43 29 11 33
-15 2 -36 -7 -56 -23z"/>
<path d="M5007 5002 c-21 -23 -22 -85 -1 -106 20 -21 78 -21 98 0 25 24 31 64
15 93 -19 34 -86 42 -112 13z m74 -12 c27 -15 24 -56 -6 -76 -20 -13 -28 -14
-40 -4 -20 16 -19 54 1 74 18 19 20 19 45 6z"/>
<path d="M4876 4993 c-3 -3 -6 -37 -6 -75 l0 -68 45 0 c33 0 45 4 45 15 0 10
-10 15 -30 15 -30 0 -30 1 -30 54 0 51 -9 74 -24 59z"/>
<path d="M5015 4371 c-23 -27 -13 -48 27 -59 26 -7 36 -6 46 6 6 9 12 19 12
22 0 13 -26 38 -46 44 -14 4 -27 0 -39 -13z"/>
<path d="M4615 9026 c-25 -37 -5 -76 38 -76 40 0 57 15 57 50 0 34 -17 50 -52
50 -18 0 -33 -8 -43 -24z"/>
<path d="M8442 4905 c0 -16 2 -22 5 -12 2 9 2 23 0 30 -3 6 -5 -1 -5 -18z"/>
<path d="M8552 4720 c0 -19 2 -27 5 -17 2 9 2 25 0 35 -3 9 -5 1 -5 -18z"/>
<path d="M8442 4650 c-16 -26 -15 -35 1 -21 8 6 17 8 20 4 10 -9 8 9 -1 24 -6
9 -11 7 -20 -7z"/>
<path d="M8562 4640 c0 -14 2 -19 5 -12 2 6 2 18 0 25 -3 6 -5 1 -5 -13z"/>
<path d="M8377 4601 c-29 -14 -34 -20 -23 -24 10 -4 25 2 37 14 17 17 23 18
37 7 15 -12 16 -11 3 5 -7 9 -14 17 -15 16 0 0 -18 -9 -39 -18z"/>
<path d="M8545 4601 c-3 -5 -1 -12 5 -16 5 -3 10 1 10 9 0 18 -6 21 -15 7z"/>
<path d="M8466 4572 c-2 -4 -1 -14 5 -22 7 -12 9 -10 9 8 0 23 -5 28 -14 14z"/>
<path d="M8516 4571 c-7 -10 18 -34 27 -25 7 8 -3 34 -13 34 -5 0 -11 -4 -14
-9z"/>
<path d="M8243 4563 c9 -2 23 -2 30 0 6 3 -1 5 -18 5 -16 0 -22 -2 -12 -5z"/>
<path d="M8188 4553 c6 -2 18 -2 25 0 6 3 1 5 -13 5 -14 0 -19 -2 -12 -5z"/>
<path d="M8380 4544 c0 -8 5 -12 10 -9 6 3 10 10 10 16 0 5 -4 9 -10 9 -5 0
-10 -7 -10 -16z"/>
<path d="M8108 4543 c7 -3 16 -2 19 1 4 3 -2 6 -13 5 -11 0 -14 -3 -6 -6z"/>
<path d="M7993 4523 c9 -2 23 -2 30 0 6 3 -1 5 -18 5 -16 0 -22 -2 -12 -5z"/>
<path d="M7938 4513 c7 -3 16 -2 19 1 4 3 -2 6 -13 5 -11 0 -14 -3 -6 -6z"/>
<path d="M8478 4496 c-4 -17 -1 -23 9 -19 15 6 18 29 4 37 -5 3 -11 -5 -13
-18z"/>
<path d="M8414 4471 c4 -5 0 -12 -6 -15 -7 -3 -2 -4 11 -3 31 3 41 27 11 27
-12 0 -19 -4 -16 -9z"/>
<path d="M7658 4463 c6 -2 18 -2 25 0 6 3 1 5 -13 5 -14 0 -19 -2 -12 -5z"/>
<path d="M7286 4385 c7 -16 24 -21 24 -6 0 5 8 12 18 14 9 3 3 5 -15 6 -25 1
-31 -2 -27 -14z"/>
<path d="M7210 4381 c0 -7 -5 -9 -10 -6 -6 3 -17 -1 -26 -9 -12 -13 -13 -16
-2 -16 20 0 54 27 45 36 -4 4 -7 2 -7 -5z"/>
<path d="M7236 4373 c-6 -14 -5 -15 5 -6 7 7 10 15 7 18 -3 3 -9 -2 -12 -12z"/>
<path d="M7110 4361 c0 -5 9 -7 20 -4 11 3 20 7 20 9 0 2 -9 4 -20 4 -11 0
-20 -4 -20 -9z"/>
<path d="M7026 4351 c-6 -10 24 -25 32 -16 3 3 -1 5 -9 6 -8 0 -6 4 6 9 19 8
19 9 -2 9 -12 1 -24 -3 -27 -8z"/>
<path d="M7250 4350 c0 -5 5 -10 10 -10 6 0 10 5 10 10 0 6 -4 10 -10 10 -5 0
-10 -4 -10 -10z"/>
<path d="M6925 4334 l-60 -13 53 5 c29 2 62 9 75 14 31 12 3 10 -68 -6z"/>
<path d="M7073 4328 c1 -7 -5 -13 -13 -12 -9 1 -16 -6 -16 -15 0 -11 10 -16
31 -17 16 -1 22 1 13 3 -20 5 -23 18 -8 28 6 3 10 10 10 16 0 5 -4 9 -10 9 -5
0 -9 -6 -7 -12z"/>
<path d="M6825 4310 c3 -5 12 -7 20 -3 21 7 19 13 -6 13 -11 0 -18 -4 -14 -10z"/>
<path d="M6773 4303 c9 -2 23 -2 30 0 6 3 -1 5 -18 5 -16 0 -22 -2 -12 -5z"/>
<path d="M6598 4273 c6 -2 18 -2 25 0 6 3 1 5 -13 5 -14 0 -19 -2 -12 -5z"/>
<path d="M7005 4270 c3 -5 8 -10 11 -10 2 0 4 5 4 10 0 6 -5 10 -11 10 -5 0
-7 -4 -4 -10z"/>
<path d="M6548 4263 c7 -3 16 -2 19 1 4 3 -2 6 -13 5 -11 0 -14 -3 -6 -6z"/>
<path d="M6868 4233 c7 -3 16 -2 19 1 4 3 -2 6 -13 5 -11 0 -14 -3 -6 -6z"/>
<path d="M6338 4223 c7 -3 16 -2 19 1 4 3 -2 6 -13 5 -11 0 -14 -3 -6 -6z"/>
<path d="M6170 4200 c-20 -6 -21 -8 -5 -8 11 0 29 3 40 8 25 11 -1 11 -35 0z"/>
<path d="M6088 4183 c7 -3 16 -2 19 1 4 3 -2 6 -13 5 -11 0 -14 -3 -6 -6z"/>
<path d="M6038 4173 c7 -3 16 -2 19 1 4 3 -2 6 -13 5 -11 0 -14 -3 -6 -6z"/>
<path d="M5978 4163 c6 -2 18 -2 25 0 6 3 1 5 -13 5 -14 0 -19 -2 -12 -5z"/>
<path d="M6048 4143 c7 -3 16 -2 19 1 4 3 -2 6 -13 5 -11 0 -14 -3 -6 -6z"/>
<path d="M4748 3943 c7 -3 16 -2 19 1 4 3 -2 6 -13 5 -11 0 -14 -3 -6 -6z"/>
<path d="M4278 3863 c7 -3 16 -2 19 1 4 3 -2 6 -13 5 -11 0 -14 -3 -6 -6z"/>
<path d="M4158 3843 c7 -3 16 -2 19 1 4 3 -2 6 -13 5 -11 0 -14 -3 -6 -6z"/>
<path d="M9180 7696 c0 -14 5 -26 10 -26 6 0 10 9 10 19 0 11 -4 23 -10 26 -6
4 -10 -5 -10 -19z"/>
<path d="M9115 6070 c22 -10 46 -19 54 -19 10 -1 12 -17 7 -78 -3 -43 -9 -132
-12 -198 -4 -66 -8 -128 -10 -138 -2 -10 -5 -105 -8 -210 -6 -230 -1 -218 14
33 6 102 15 253 20 335 5 83 10 174 11 203 l3 54 -54 19 c-67 24 -77 23 -25
-1z"/>
<path d="M9144 5045 c0 -66 1 -92 3 -57 2 34 2 88 0 120 -2 31 -3 3 -3 -63z"/>
<path d="M9349 5118 c0 -2 -2 -51 -5 -110 -4 -73 -2 -108 5 -108 7 0 11 39 11
110 0 61 -2 110 -5 110 -3 0 -5 -1 -6 -2z"/>
<path d="M457 4650 c-3 -11 -3 -20 -1 -20 2 0 8 9 14 20 6 11 7 20 2 20 -6 0
-12 -9 -15 -20z"/>
<path d="M8025 4064 c17 -9 64 -43 105 -74 111 -84 145 -101 80 -41 -57 53
-149 114 -191 125 -19 5 -18 3 6 -10z"/>
<path d="M7650 3932 c1 -7 106 -84 125 -91 5 -2 -8 15 -29 37 -35 37 -97 72
-96 54z"/>
<path d="M8414 3802 c3 -6 50 -36 104 -68 172 -102 336 -196 367 -210 28 -14
29 -14 10 1 -11 9 -40 28 -65 42 -25 15 -119 70 -210 123 -193 114 -215 125
-206 112z"/>
<path d="M6409 3293 c-13 -17 -13 -17 6 -3 11 8 22 16 24 17 2 2 0 3 -6 3 -6
0 -17 -8 -24 -17z"/>
<path d="M6180 3255 c0 -8 5 -15 10 -15 6 0 10 7 10 15 0 8 -4 15 -10 15 -5 0
-10 -7 -10 -15z"/>
<path d="M6526 3151 c-3 -5 26 -12 65 -15 134 -14 158 -37 139 -136 -15 -82
-29 -88 -141 -59 -20 5 -53 20 -73 34 -47 32 -50 7 -3 -28 36 -27 80 -43 147
-52 40 -6 48 -4 70 20 21 23 25 38 28 103 5 92 -10 118 -73 132 -51 12 -152
13 -159 1z"/>
<path d="M6970 3050 c-22 -42 -28 -143 -10 -170 7 -10 10 8 10 60 1 41 7 92
14 113 18 48 12 47 -14 -3z"/>
<path d="M7032 3025 c-7 -14 -12 -45 -11 -68 0 -51 12 -28 23 46 8 53 5 59
-12 22z"/>
<path d="M7938 2553 c7 -3 16 -2 19 1 4 3 -2 6 -13 5 -11 0 -14 -3 -6 -6z"/>
<path d="M7978 2543 c7 -3 16 -2 19 1 4 3 -2 6 -13 5 -11 0 -14 -3 -6 -6z"/>
<path d="M8068 2523 c7 -3 16 -2 19 1 4 3 -2 6 -13 5 -11 0 -14 -3 -6 -6z"/>
<path d="M8864 2509 c-26 -11 31 -9 71 1 28 8 27 8 -11 7 -23 0 -50 -4 -60 -8z"/>
<path d="M8755 2490 l-40 -7 45 -1 c25 0 54 3 65 8 18 8 18 9 -5 8 -14 -1 -43
-4 -65 -8z"/>
<path d="M9370 2490 c0 -5 8 -10 18 -10 9 0 54 -13 100 -30 45 -16 82 -25 82
-21 0 5 -8 11 -17 14 -10 3 -49 17 -88 31 -76 28 -95 31 -95 16z"/>
<path d="M8565 2470 c-35 -5 -23 -6 39 -4 49 2 92 6 94 9 7 7 -71 4 -133 -5z"/>
<path d="M6115 3809 c-137 -27 -144 -37 -63 -83 41 -22 78 -36 99 -36 41 1
227 35 236 43 13 13 -8 36 -61 66 -64 36 -76 36 -211 10z"/>
<path d="M5760 3746 c-114 -21 -140 -30 -140 -45 0 -5 29 -26 65 -48 l65 -40
127 23 c167 30 175 33 170 47 -5 17 -128 87 -152 86 -11 0 -72 -11 -135 -23z"/>
<path d="M5372 3680 c-82 -15 -125 -32 -111 -43 2 -2 29 -20 59 -41 45 -30 63
-36 105 -35 70 0 238 32 242 46 2 6 -22 30 -53 52 -67 48 -91 50 -242 21z"/>
<path d="M5028 3616 c-64 -11 -122 -26 -128 -32 -18 -18 101 -94 147 -94 70 0
273 42 273 57 0 19 -120 93 -150 92 -14 -1 -78 -11 -142 -23z"/>
<path d="M5695 3574 c-182 -36 -190 -38 -190 -53 0 -8 50 -46 110 -84 l110
-69 135 22 c173 28 241 47 234 64 -3 7 -51 43 -106 80 -117 76 -114 76 -293
40z"/>
<path d="M4648 3546 c-124 -24 -142 -35 -103 -62 14 -11 39 -29 55 -41 34 -28
67 -29 218 -4 155 25 162 35 66 96 -64 41 -82 42 -236 11z"/>
<path d="M5365 3514 c-5 -2 -73 -15 -150 -29 -77 -14 -144 -30 -149 -35 -14
-14 8 -35 108 -101 102 -69 107 -70 241 -45 182 34 236 47 232 59 -2 7 -50 44
-108 84 -98 68 -136 83 -174 67z"/>
<path d="M5365 3269 c-55 -11 -114 -22 -131 -24 -17 -3 -39 -11 -49 -19 -18
-13 -10 -19 90 -86 l110 -72 55 7 c48 6 201 35 268 50 44 11 25 41 -67 104
-103 70 -110 71 -276 40z"/>
<path d="M5765 3106 c-114 -23 -161 -36 -163 -47 -1 -9 22 -30 58 -53 34 -22
78 -52 98 -69 35 -28 40 -29 107 -22 79 7 251 42 278 56 9 6 17 13 17 17 0 12
-206 152 -222 151 -7 0 -85 -15 -173 -33z"/>
<path d="M4676 3170 c16 -11 50 -47 74 -80 24 -33 45 -60 47 -60 2 0 -6 18
-17 40 -30 58 -88 120 -114 120 -18 0 -17 -3 10 -20z"/>
<path d="M4170 3149 c150 -72 148 -71 221 -178 29 -42 56 -80 62 -86 17 -18
-35 78 -79 147 -48 75 -106 113 -186 123 -39 5 -40 4 -18 -6z"/>
<path d="M4140 3105 c0 -2 10 -10 23 -16 20 -11 21 -11 8 4 -13 16 -31 23 -31
12z"/>
<path d="M3895 2878 c17 -12 61 -52 99 -88 l70 -65 -48 63 c-26 34 -64 73 -84
87 -46 31 -79 33 -37 3z"/>
<path d="M3820 2866 c0 -3 9 -10 20 -16 11 -6 20 -8 20 -6 0 3 -9 10 -20 16
-11 6 -20 8 -20 6z"/>
<path d="M3585 2629 c-18 -7 -18 -8 -2 -8 25 -1 74 -28 121 -64 37 -29 38 -30
23 -6 -34 51 -108 92 -142 78z"/>
<path d="M3475 2318 c26 -38 49 -68 51 -68 9 0 -28 56 -63 96 -26 31 -24 25
12 -28z"/>
<path d="M3650 2060 c0 -5 5 -10 11 -10 5 0 7 5 4 10 -3 6 -8 10 -11 10 -2 0
-4 -4 -4 -10z"/>
<path d="M3696 1995 c50 -89 184 -255 184 -229 0 6 -9 19 -21 30 -11 10 -55
66 -96 124 -92 126 -105 141 -67 75z"/>
<path d="M3905 1727 c10 -15 20 -25 23 -22 3 3 -5 16 -17 28 l-23 22 17 -28z"/>
<path d="M3940 1693 c0 -6 8 -17 18 -24 16 -13 16 -13 2 6 -8 11 -16 22 -17
24 -2 2 -3 0 -3 -6z"/>
<path d="M4030 1599 c113 -103 247 -188 354 -223 76 -26 64 -12 -16 19 -40 15
-93 39 -118 53 -53 29 -194 138 -229 176 -14 14 -29 26 -35 26 -6 -1 14 -23
44 -51z"/>
<path d="M2550 3155 c-168 -32 -170 -33 -170 -53 1 -25 104 -92 144 -92 17 0
90 11 161 25 72 14 131 25 133 25 1 0 2 9 2 20 0 13 -21 33 -62 60 -34 22 -67
40 -72 39 -6 0 -67 -11 -136 -24z"/>
<path d="M2131 3075 c-131 -25 -152 -35 -135 -62 15 -24 124 -83 154 -83 27 0
258 47 271 56 5 3 9 11 9 17 -1 18 -126 97 -152 96 -13 0 -79 -11 -147 -24z"/>
<path d="M3303 2055 c15 -14 33 -25 38 -25 6 0 -3 11 -19 25 -39 32 -56 32
-19 0z"/>
<path d="M3405 1991 c-3 -5 -1 -12 5 -16 5 -3 10 1 10 9 0 18 -6 21 -15 7z"/>
<path d="M2015 2610 c3 -5 13 -10 21 -10 8 0 14 5 14 10 0 6 -9 10 -21 10 -11
0 -17 -4 -14 -10z"/>
<path d="M2095 2574 c22 -15 42 -31 45 -34 3 -4 16 -13 30 -20 14 -7 49 -31
78 -53 30 -21 55 -37 57 -35 5 5 -213 158 -235 165 -8 3 3 -7 25 -23z"/>
<path d="M2080 2466 c0 -2 7 -7 16 -10 8 -3 12 -2 9 4 -6 10 -25 14 -25 6z"/>
<path d="M2345 2405 c17 -14 44 -33 60 -42 17 -9 53 -33 80 -53 60 -44 75 -53
75 -46 0 6 -93 70 -185 129 -39 24 -50 29 -30 12z"/>
<path d="M2360 2286 c0 -2 7 -7 16 -10 8 -3 12 -2 9 4 -6 10 -25 14 -25 6z"/>
<path d="M2575 2253 c26 -26 135 -97 135 -89 0 3 -26 23 -57 44 -67 44 -93 60
-78 45z"/>
<path d="M2530 2181 c0 -5 7 -12 16 -15 24 -9 27 -7 10 9 -17 17 -26 19 -26 6z"/>
<path d="M2725 2153 c28 -27 95 -74 95 -66 0 4 -17 19 -37 33 -51 34 -71 45
-58 33z"/>
<path d="M2640 2107 c0 -3 13 -15 29 -26 l28 -20 -5 25 c-3 18 -7 22 -13 13
-6 -10 -10 -10 -23 0 -9 8 -16 11 -16 8z"/>
<path d="M2842 2068 c17 -13 138 -95 212 -144 21 -14 40 -23 42 -21 2 2 -52
40 -119 84 -116 77 -174 112 -135 81z"/>
<path d="M2728 2048 c5 -5 16 -8 23 -6 8 3 3 7 -10 11 -17 4 -21 3 -13 -5z"/>
<path d="M2783 2011 c0 -10 7 -17 13 -14 7 3 10 11 7 19 -8 20 -22 17 -20 -5z"/>
<path d="M2818 1994 c-12 -12 37 -48 60 -45 14 1 22 -1 19 -6 -4 -6 1 -10 10
-10 11 0 8 7 -12 25 -27 23 -29 23 -35 6 -6 -15 -8 -14 -14 9 -6 26 -16 33
-28 21z"/>
<path d="M2910 1916 c0 -6 84 -56 94 -56 4 0 -5 11 -21 24 -27 22 -73 43 -73
32z"/>
<path d="M3125 1883 c6 -6 34 -26 63 -46 30 -19 48 -37 41 -39 -9 -3 -8 -6 3
-10 30 -12 13 22 -23 46 -57 38 -95 60 -84 49z"/>
<path d="M3037 1835 c3 -8 9 -12 14 -9 12 7 11 11 -5 17 -10 4 -13 1 -9 -8z"/>
<path d="M3127 1784 c3 -7 9 -14 14 -14 14 0 10 17 -5 23 -10 4 -13 1 -9 -9z"/>
<path d="M3260 1790 c0 -5 5 -10 11 -10 5 0 7 5 4 10 -3 6 -8 10 -11 10 -2 0
-4 -4 -4 -10z"/>
<path d="M3294 1766 c3 -20 29 -43 44 -38 7 2 19 -2 27 -8 8 -7 15 -10 15 -7
0 3 -20 20 -44 36 -26 18 -43 25 -42 17z"/>
<path d="M3226 1703 c-6 -14 -5 -15 5 -6 7 7 10 15 7 18 -3 3 -9 -2 -12 -12z"/>
<path d="M3390 1700 c0 -5 5 -10 11 -10 5 0 7 5 4 10 -3 6 -8 10 -11 10 -2 0
-4 -4 -4 -10z"/>
<path d="M3430 1677 c0 -2 19 -17 43 -32 23 -16 37 -22 30 -14 -12 15 -73 53
-73 46z"/>
<path d="M3535 1600 c3 -5 8 -10 11 -10 2 0 4 5 4 10 0 6 -5 10 -11 10 -5 0
-7 -4 -4 -10z"/>
<path d="M3392 1580 c7 -10 14 -18 15 -16 6 6 -9 36 -18 36 -5 0 -4 -9 3 -20z"/>
<path d="M3592 1564 c10 -10 20 -15 24 -12 3 4 -5 12 -18 18 -22 12 -22 12 -6
-6z"/>
<path d="M3647 1529 c12 -12 25 -20 28 -17 3 3 -7 13 -22 23 l-28 17 22 -23z"/>
<path d="M3558 1523 c7 -3 16 -2 19 1 4 3 -2 6 -13 5 -11 0 -14 -3 -6 -6z"/>
<path d="M3626 1432 c-4 -6 10 -22 31 -36 42 -29 63 -34 39 -10 -9 8 -14 20
-11 25 4 5 -1 6 -10 3 -9 -4 -21 1 -29 11 -9 12 -15 14 -20 7z"/>
<path d="M5872 1934 c-1 -17 -4 -47 -7 -65 -5 -31 -5 -32 5 -9 6 13 9 42 7 65
-3 32 -4 34 -5 9z"/>
<path d="M6863 2679 c-10 -3 9 -11 46 -18 70 -14 391 -101 461 -125 29 -10 48
-12 54 -6 6 6 6 10 0 11 -29 2 -60 11 -68 19 -6 6 -23 10 -38 10 -16 0 -46 9
-66 19 -21 11 -59 22 -85 26 -26 4 -45 11 -42 15 2 4 -21 10 -53 14 -31 4 -70
13 -86 21 -15 8 -32 12 -37 9 -5 -3 -9 -1 -9 4 0 10 -50 11 -77 1z"/>
<path d="M7440 2526 c0 -7 24 -19 55 -28 30 -8 55 -12 55 -7 0 5 -12 12 -27
15 -16 4 -32 10 -38 14 -23 16 -45 19 -45 6z"/>
<path d="M6928 1963 c7 -3 16 -2 19 1 4 3 -2 6 -13 5 -11 0 -14 -3 -6 -6z"/>
<path d="M9203 8570 c0 -377 3 -671 7 -655 9 37 10 786 1 1105 -5 165 -7 30
-8 -450z"/>
<path d="M9822 8186 c-2 -731 1 -1017 9 -1009 8 8 8 299 1 1019 l-9 1009 -1
-1019z"/>
<path d="M9897 8623 c-9 -647 -7 -1208 2 -1328 5 -49 9 348 9 883 1 534 0 972
-1 972 -2 0 -7 -237 -10 -527z"/>
<path d="M8457 8498 c-11 -270 -8 -1101 3 -1118 6 -10 10 213 10 638 0 358 -2
652 -3 652 -2 0 -7 -78 -10 -172z"/>
<path d="M10220 7241 c0 -6 5 -13 10 -16 6 -3 10 1 10 9 0 9 -4 16 -10 16 -5
0 -10 -4 -10 -9z"/>
<path d="M10133 6877 c-29 -5 -53 -14 -53 -19 0 -5 8 -7 18 -4 9 3 43 8 75 12
31 3 60 10 63 15 6 11 -34 10 -103 -4z"/>
<path d="M9825 4490 c3 -5 8 -10 11 -10 2 0 4 5 4 10 0 6 -5 10 -11 10 -5 0
-7 -4 -4 -10z"/>
<path d="M9435 4382 c11 -10 558 -325 708 -406 48 -27 91 -45 95 -41 4 4 2 9
-3 11 -6 3 -150 83 -320 180 -294 167 -502 278 -480 256z"/>
<path d="M8455 4240 c-105 -25 -117 -30 -103 -47 7 -9 36 -31 64 -49 l51 -33
109 23 c127 26 139 39 74 82 -47 31 -124 40 -195 24z"/>
<path d="M8688 4217 c13 -14 133 -89 265 -168 133 -78 321 -189 417 -247 96
-58 227 -135 290 -172 63 -36 183 -106 265 -155 154 -90 305 -175 311 -175 2
0 4 6 4 13 0 7 -57 46 -127 86 -252 145 -901 526 -1038 609 -180 109 -308 183
-365 212 l-45 22 23 -25z"/>
<path d="M659 4173 c-13 -16 -12 -17 4 -4 9 7 17 15 17 17 0 8 -8 3 -21 -13z"/>
<path d="M573 4116 c-13 -6 -23 -15 -23 -20 0 -5 3 -6 7 -3 3 4 12 2 20 -5 10
-8 12 -8 8 4 -4 9 3 19 17 26 13 6 16 10 8 10 -8 0 -25 -5 -37 -12z"/>
<path d="M80 3724 c0 -207 3 -313 10 -309 14 8 14 625 0 625 -6 0 -10 -112
-10 -316z"/>
<path d="M618 3913 c12 -2 32 -2 45 0 12 2 2 4 -23 4 -25 0 -35 -2 -22 -4z"/>
<path d="M645 2784 c-530 -107 -564 -117 -609 -177 -17 -23 -22 -46 -24 -120
l-3 -92 43 -45 c24 -25 68 -65 97 -90 30 -25 152 -130 270 -234 119 -104 246
-213 283 -244 38 -30 65 -58 62 -63 -3 -5 -1 -8 4 -7 10 3 89 -62 187 -153 56
-52 419 -371 491 -432 49 -41 142 -80 202 -85 66 -6 203 12 337 43 55 13 147
33 205 44 467 91 460 88 460 228 0 68 -4 92 -20 117 -21 34 -99 103 -299 261
-151 119 -499 406 -636 525 -55 47 -188 158 -295 246 -389 320 -381 315 -504
313 -48 -1 -151 -15 -251 -35z m348 -18 c74 -31 72 -29 687 -542 286 -238 589
-488 673 -555 197 -159 220 -179 241 -211 25 -39 5 -77 -54 -101 -44 -17 -44
-18 -10 -14 50 6 61 0 54 -31 -4 -15 -11 -33 -17 -40 -11 -14 -37 -16 -37 -2
0 5 7 7 15 4 11 -5 15 1 15 18 0 22 -4 24 -30 20 -16 -2 -30 -9 -30 -14 0 -6
-7 -8 -15 -4 -8 3 -15 1 -15 -5 0 -6 -4 -7 -10 -4 -5 3 -11 -2 -11 -12 -1 -17
-2 -17 -6 0 -5 18 -33 24 -33 6 0 -5 -5 -7 -11 -4 -15 10 -69 -15 -69 -31 0
-22 20 -27 41 -8 12 11 19 13 19 5 0 -7 5 -9 12 -5 7 4 21 8 32 9 12 1 37 4
56 8 l35 7 -40 -15 c-21 -9 -55 -17 -75 -19 -19 -2 -42 -6 -50 -9 -21 -7 -107
-27 -118 -27 -5 0 -7 13 -4 28 6 47 -15 55 -94 37 -82 -19 -94 -28 -94 -70 0
-32 -2 -33 -65 -49 -79 -20 -80 -20 -61 0 24 23 20 44 -8 44 -28 0 -42 -26
-25 -47 7 -7 10 -15 8 -17 -9 -8 -164 -26 -222 -26 -47 0 -76 7 -122 29 -60
28 -78 42 -280 226 -61 55 -210 186 -330 290 -121 105 -254 223 -295 264 -41
40 -92 84 -113 98 -22 14 -35 28 -31 35 4 6 3 8 -3 5 -6 -4 -30 10 -54 31
-165 143 -301 263 -341 302 l-47 45 -3 77 c-3 87 7 105 75 140 42 21 696 156
762 157 22 0 66 -10 98 -23z"/>
<path d="M645 2719 c-209 -42 -407 -84 -472 -101 -23 -5 -52 -21 -64 -34 l-23
-24 40 -41 c21 -23 116 -107 209 -187 409 -353 570 -493 720 -627 287 -256
490 -430 530 -455 53 -33 128 -32 295 4 69 15 231 49 360 76 254 52 308 68
324 92 16 25 16 25 -319 292 -82 66 -195 158 -250 206 -55 47 -134 112 -175
145 -41 32 -133 109 -205 170 -141 120 -491 410 -559 462 -52 41 -117 63 -175
62 -25 -1 -131 -19 -236 -40z m402 -479 c0 -156 -3 -212 -7 -165 -4 39 -7 185
-7 325 0 186 2 231 8 165 4 -49 7 -196 6 -325z m62 77 c-1 -160 -4 -231 -9
-194 -11 88 -11 459 0 452 6 -4 9 -106 9 -258z m930 -624 c-1 -93 -3 -108 -10
-73 -11 66 -11 190 1 190 6 0 10 -45 9 -117z m70 -40 l-2 -78 -8 69 c-7 64 -5
86 7 86 2 0 3 -35 3 -77z"/>
<path d="M342 2200 c7 -11 19 -22 28 -25 8 -4 4 5 -9 19 -29 31 -36 33 -19 6z"/>
<path d="M447 2154 c50 -47 113 -103 161 -143 12 -10 22 -23 22 -29 0 -5 7
-12 15 -16 40 -15 0 28 -153 164 -86 76 -121 95 -45 24z"/>
<path d="M410 2126 c0 -2 8 -10 18 -17 15 -13 16 -12 3 4 -13 16 -21 21 -21
13z"/>
<path d="M670 1955 c0 -2 10 -10 23 -16 20 -11 21 -11 8 4 -13 16 -31 23 -31
12z"/>
<path d="M741 1893 c0 -4 14 -19 31 -32 29 -24 30 -24 19 -3 -12 22 -51 49
-50 35z"/>
<path d="M840 1800 c0 -5 5 -10 11 -10 5 0 7 5 4 10 -3 6 -8 10 -11 10 -2 0
-4 -4 -4 -10z"/>
<path d="M881 1772 c8 -12 20 -24 28 -27 27 -10 22 3 -9 25 -31 22 -32 22 -19
2z"/>
<path d="M928 1722 c-8 -10 -9 -13 -1 -9 7 5 36 -17 72 -53 33 -33 65 -60 71
-60 5 0 10 -6 10 -13 0 -7 23 -26 50 -42 46 -27 55 -37 51 -58 -1 -5 3 -6 9
-2 5 3 10 1 10 -5 0 -6 4 -9 9 -6 4 3 26 -9 47 -27 60 -50 83 -64 42 -26 -20
19 -49 45 -65 58 -15 13 -46 40 -68 60 -23 20 -72 63 -110 96 -38 33 -79 70
-91 82 -21 19 -24 20 -36 5z"/>
<path d="M1394 1325 c33 -31 69 -61 80 -67 12 -6 -8 16 -43 48 -35 33 -71 63
-80 67 -9 5 11 -17 43 -48z"/>
<path d="M1800 1151 c-15 -29 -12 -41 9 -41 28 0 47 26 31 45 -17 20 -27 19
-40 -4z"/>
<path d="M1730 1124 c0 -8 9 -14 20 -14 11 0 20 6 20 13 0 7 -9 13 -20 14 -11
1 -20 -4 -20 -13z"/>
<path d="M9848 2503 c7 -3 16 -2 19 1 4 3 -2 6 -13 5 -11 0 -14 -3 -6 -6z"/>
<path d="M9900 2485 c14 -8 30 -14 35 -14 6 0 -1 6 -15 14 -14 8 -29 14 -35
14 -5 0 1 -6 15 -14z"/>
<path d="M10050 2415 c25 -13 50 -24 55 -24 6 0 -10 11 -35 24 -25 13 -49 24
-55 24 -5 0 10 -11 35 -24z"/>
<path d="M362 2035 c15 -16 29 -27 31 -24 3 2 -10 15 -27 28 l-31 24 27 -28z"/>
<path d="M420 1988 c0 -2 26 -26 58 -53 36 -31 46 -37 27 -16 -28 31 -85 77
-85 69z"/>
<path d="M1 1973 c0 -8 107 -99 418 -355 96 -78 213 -175 260 -214 47 -40 88
-70 90 -68 8 7 -33 46 -139 132 -135 111 -365 301 -506 419 -107 90 -125 102
-123 86z"/>
<path d="M540 1883 c0 -5 13 -17 28 -27 l27 -19 -24 26 c-26 28 -31 32 -31 20z"/>
<path d="M5561 1505 c0 -5 6 -21 14 -35 8 -14 14 -20 14 -15 0 6 -6 21 -14 35
-8 14 -14 21 -14 15z"/>
<path d="M5771 1455 c0 -5 6 -21 14 -35 8 -14 14 -20 14 -15 0 6 -6 21 -14 35
-8 14 -14 21 -14 15z"/>
<path d="M5590 1435 c0 -5 5 -17 10 -25 5 -8 10 -10 10 -5 0 6 -5 17 -10 25
-5 8 -10 11 -10 5z"/>
<path d="M1080 1406 c0 -2 8 -10 18 -17 15 -13 16 -12 3 4 -13 16 -21 21 -21
13z"/>
<path d="M5400 1385 c0 -5 5 -17 10 -25 5 -8 10 -10 10 -5 0 6 -5 17 -10 25
-5 8 -10 11 -10 5z"/>
<path d="M5610 1385 c0 -5 5 -17 10 -25 5 -8 10 -10 10 -5 0 6 -5 17 -10 25
-5 8 -10 11 -10 5z"/>
<path d="M5800 1388 c0 -3 36 -92 80 -197 44 -106 80 -196 80 -201 0 -5 4 -12
10 -15 14 -9 -33 118 -102 275 -56 127 -68 151 -68 138z"/>
<path d="M4931 1315 c0 -5 8 -26 19 -45 11 -19 19 -30 19 -25 0 6 -8 26 -19
45 -11 19 -19 31 -19 25z"/>
<path d="M5640 1315 c0 -5 5 -17 10 -25 5 -8 10 -10 10 -5 0 6 -5 17 -10 25
-5 8 -10 11 -10 5z"/>
<path d="M5410 1281 c0 -6 4 -13 10 -16 6 -3 7 1 4 9 -7 18 -14 21 -14 7z"/>
<path d="M4910 1264 c0 -6 7 -19 16 -30 14 -18 14 -18 3 6 -14 31 -19 36 -19
24z"/>
<path d="M5660 1265 c0 -5 5 -17 10 -25 5 -8 10 -10 10 -5 0 6 -5 17 -10 25
-5 8 -10 11 -10 5z"/>
<path d="M910 1220 c73 -67 399 -330 468 -376 126 -87 230 -95 497 -40 356 73
576 126 527 126 -11 0 -449 -90 -612 -125 -96 -21 -220 -21 -290 -1 -68 20
-129 62 -358 246 -98 80 -201 160 -228 178 l-49 33 45 -41z"/>
<path d="M4814 1063 c40 -82 78 -163 85 -181 8 -18 15 -31 17 -29 9 9 -154
357 -167 357 -4 0 25 -66 65 -147z"/>
<path d="M4941 1207 c-1 -11 159 -353 175 -374 8 -10 -15 45 -51 122 -87 188
-124 262 -124 252z"/>
<path d="M4981 1205 c0 -5 18 -44 39 -85 21 -41 39 -70 39 -65 0 6 -18 44 -39
85 -21 41 -39 71 -39 65z"/>
<path d="M2543 1190 c-13 -5 -23 -11 -23 -14 0 -7 40 6 46 15 6 10 6 10 -23
-1z"/>
<path d="M4710 1194 c0 -9 182 -374 186 -374 6 0 -63 154 -120 268 -50 100
-66 125 -66 106z"/>
<path d="M5450 1195 c0 -5 5 -17 10 -25 5 -8 10 -10 10 -5 0 6 -5 17 -10 25
-5 8 -10 11 -10 5z"/>
<path d="M5690 1195 c0 -5 5 -17 10 -25 5 -8 10 -10 10 -5 0 6 -5 17 -10 25
-5 8 -10 11 -10 5z"/>
<path d="M5710 1145 c0 -5 5 -17 10 -25 5 -8 10 -10 10 -5 0 6 -5 17 -10 25
-5 8 -10 11 -10 5z"/>
<path d="M5081 995 c0 -5 6 -21 14 -35 8 -14 14 -20 14 -15 0 6 -6 21 -14 35
-8 14 -14 21 -14 15z"/>
<path d="M5690 925 c-88 -18 -170 -42 -263 -77 -98 -38 -94 -49 5 -14 133 47
308 82 498 100 19 1 -12 3 -70 3 -58 1 -134 -5 -170 -12z"/>
<path d="M2875 580 c-77 -16 -304 -63 -505 -105 -626 -130 -609 -127 -685
-122 -93 7 -135 21 -191 63 -25 19 -49 33 -52 29 -9 -9 46 -51 108 -82 82 -41
201 -39 425 9 94 21 267 57 385 82 504 105 597 126 640 139 69 23 29 18 -125
-13z"/>
</g>
</svg>
